<svg width="154" height="52" viewBox="0 0 154 52" fill="none" xmlns="http://www.w3.org/2000/svg">
<g clip-path="url(#clip0_869_725)">
<path d="M141.35 0.147109H12.3985C11.9285 0.147109 11.4641 0.147109 10.9953 0.149672C10.6028 0.152236 10.2135 0.159683 9.81734 0.165952C8.95662 0.17608 8.09792 0.251803 7.24871 0.392462C6.40069 0.536182 5.57923 0.807137 4.81212 1.19616C4.04596 1.58848 3.34589 2.09825 2.73731 2.70699C2.12554 3.31402 1.61558 4.01566 1.22705 4.78493C0.837438 5.55268 0.567282 6.37538 0.42591 7.22464C0.283193 8.07283 0.206396 8.93079 0.196208 9.79084C0.184313 10.1838 0.183056 10.5782 0.176788 10.9712V40.5995C0.183056 40.9975 0.184313 41.3831 0.196208 41.7812C0.206399 42.6412 0.283196 43.4991 0.42591 44.3473C0.566892 45.197 0.837063 46.0202 1.22705 46.7882C1.61541 47.555 2.12543 48.2538 2.73731 48.8575C3.34358 49.4689 4.0441 49.979 4.81212 50.3684C5.57923 50.7584 6.40059 51.031 7.24871 51.1769C8.09806 51.3165 8.95668 51.3922 9.81734 51.4036C10.2135 51.4123 10.6028 51.4173 10.9953 51.4173C11.4641 51.4198 11.9285 51.4198 12.3985 51.4198H141.35C141.81 51.4198 142.278 51.4198 142.739 51.4173C143.13 51.4173 143.53 51.4123 143.921 51.4036C144.78 51.3928 145.637 51.3171 146.484 51.1769C147.335 51.03 148.16 50.7575 148.93 50.3684C149.698 49.9788 150.398 49.4687 151.003 48.8575C151.614 48.2515 152.125 47.5532 152.518 46.7882C152.905 46.0196 153.173 45.1965 153.311 44.3473C153.454 43.499 153.534 42.6413 153.549 41.7812C153.554 41.3831 153.554 40.9975 153.554 40.5995C153.564 40.1338 153.564 39.6707 153.564 39.1974V12.3707C153.564 11.9013 153.564 11.4356 153.554 10.9712C153.554 10.5782 153.554 10.1838 153.549 9.79079C153.534 8.93067 153.454 8.07289 153.311 7.22459C153.172 6.37582 152.905 5.55318 152.518 4.78488C151.727 3.24295 150.472 1.98783 148.93 1.19605C148.16 0.807972 147.335 0.53709 146.484 0.392346C145.637 0.251068 144.78 0.175319 143.921 0.165772C143.53 0.159517 143.13 0.152005 142.739 0.149506C142.278 0.146942 141.81 0.147109 141.35 0.147109Z" fill="#A6A6A6"/>
<path d="M11.0023 50.2981C10.6118 50.2981 10.2307 50.2931 9.84319 50.2843C9.04049 50.2739 8.23967 50.204 7.44729 50.0753C6.70844 49.948 5.99269 49.7113 5.32366 49.373C4.66075 49.0374 4.05613 48.5974 3.53296 48.0699C3.00221 47.5485 2.56033 46.9438 2.22485 46.2798C1.88566 45.6115 1.65093 44.8951 1.52882 44.1556C1.39695 43.361 1.32561 42.5576 1.3154 41.7522C1.30727 41.4818 1.29663 40.5817 1.29663 40.5817V10.971C1.29663 10.971 1.30796 10.0848 1.31546 9.82439C1.32524 9.02028 1.39617 8.21808 1.52764 7.42474C1.64998 6.68323 1.88489 5.96477 2.22426 5.29423C2.55851 4.63065 2.99793 4.02552 3.52548 3.50231C4.05244 2.97412 4.659 2.53187 5.32303 2.19169C5.99053 1.85442 6.70492 1.61938 7.44228 1.49446C8.23726 1.36444 9.04087 1.29414 9.84635 1.28416L11.003 1.26851H142.734L143.904 1.28479C144.702 1.29427 145.498 1.36394 146.286 1.4932C147.031 1.6197 147.753 1.85637 148.428 2.19544C149.758 2.88102 150.841 3.96566 151.524 5.29735C151.857 5.96327 152.089 6.67587 152.21 7.41097C152.343 8.21082 152.417 9.01933 152.432 9.83003C152.436 10.193 152.436 10.583 152.436 10.971C152.446 11.4517 152.446 11.9092 152.446 12.3705V39.1973C152.446 39.6629 152.446 40.1173 152.436 40.5755C152.436 40.9923 152.436 41.3742 152.431 41.7672C152.416 42.5634 152.343 43.3575 152.212 44.143C152.092 44.8878 151.859 45.6098 151.52 46.2837C151.182 46.9405 150.743 47.5399 150.218 48.0599C149.694 48.5903 149.089 49.0328 148.424 49.3705C147.751 49.7115 147.03 49.9491 146.286 50.0753C145.494 50.2047 144.693 50.2746 143.89 50.2843C143.515 50.2931 143.122 50.2981 142.74 50.2981L141.35 50.3006L11.0023 50.2981Z" fill="black"/>
<path d="M31.9252 26.1685C31.939 25.0986 32.2232 24.0496 32.7513 23.1191C33.2795 22.1885 34.0344 21.4067 34.9459 20.8463C34.3669 20.0194 33.603 19.3388 32.7149 18.8587C31.8268 18.3786 30.839 18.1122 29.83 18.0806C27.6775 17.8547 25.5908 19.3686 24.4939 19.3686C23.3758 19.3686 21.687 18.103 19.8684 18.1404C18.6922 18.1784 17.5458 18.5205 16.541 19.1333C15.5362 19.7461 14.7073 20.6087 14.135 21.6371C11.6559 25.9291 13.5051 32.237 15.8798 35.7064C17.0679 37.4053 18.4565 39.3029 20.2734 39.2356C22.0513 39.1619 22.7154 38.1019 24.8615 38.1019C26.9878 38.1019 27.6108 39.2356 29.4645 39.1929C31.3724 39.1619 32.5744 37.4864 33.7208 35.7715C34.5745 34.561 35.2314 33.2231 35.6672 31.8075C34.5588 31.3387 33.6129 30.554 32.9475 29.5512C32.282 28.5484 31.9265 27.372 31.9252 26.1685Z" fill="white"/>
<path d="M28.4233 15.7989C29.4636 14.5501 29.976 12.9451 29.8519 11.3245C28.2627 11.4915 26.7947 12.251 25.7404 13.4519C25.2249 14.0385 24.8301 14.721 24.5786 15.4603C24.327 16.1996 24.2237 16.9813 24.2744 17.7605C25.0693 17.7687 25.8557 17.5964 26.5744 17.2566C27.293 16.9169 27.9252 16.4184 28.4233 15.7989Z" fill="white"/>
<path d="M54.3997 34.9352H48.3324L46.8753 39.2376H44.3054L50.0523 23.32H52.7224L58.4693 39.2376H55.8555L54.3997 34.9352ZM48.9608 32.9499H53.7701L51.3993 25.9675H51.3329L48.9608 32.9499Z" fill="white"/>
<path d="M70.881 33.4355C70.881 37.0418 68.9507 39.3589 66.0379 39.3589C65.3 39.3975 64.5661 39.2275 63.9204 38.8684C63.2746 38.5093 62.743 37.9756 62.3864 37.3285H62.3313V43.0766H59.9492V27.6322H62.255V29.5625H62.2988C62.6718 28.9184 63.2123 28.3875 63.863 28.0262C64.5137 27.6649 65.2502 27.4868 65.9941 27.5108C68.9394 27.5108 70.881 29.8391 70.881 33.4355ZM68.4325 33.4355C68.4325 31.0859 67.2183 29.5412 65.3656 29.5412C63.5456 29.5412 62.3213 31.1184 62.3213 33.4355C62.3213 35.7738 63.5456 37.3398 65.3656 37.3398C67.2183 37.3398 68.4325 35.8063 68.4325 33.4355Z" fill="white"/>
<path d="M83.6538 33.4355C83.6538 37.0418 81.7235 39.3589 78.8107 39.3589C78.0728 39.3975 77.3389 39.2275 76.6932 38.8684C76.0474 38.5093 75.5158 37.9756 75.1592 37.3285H75.1041V43.0766H72.722V27.6322H75.0277V29.5625H75.0716C75.4445 28.9184 75.9851 28.3875 76.6358 28.0262C77.2865 27.6649 78.0229 27.4868 78.7668 27.5108C81.7123 27.5108 83.6538 29.8391 83.6538 33.4355ZM81.2053 33.4355C81.2053 31.0859 79.9911 29.5412 78.1384 29.5412C76.3184 29.5412 75.0941 31.1184 75.0941 33.4355C75.0941 35.7738 76.3184 37.3398 78.1384 37.3398C79.9911 37.3398 81.2053 35.8063 81.2053 33.4355Z" fill="white"/>
<path d="M92.0951 34.8024C92.2716 36.3809 93.8051 37.4173 95.9005 37.4173C97.9084 37.4173 99.3529 36.3808 99.3529 34.9576C99.3529 33.722 98.4817 32.9823 96.4187 32.4753L94.3558 31.9783C91.4329 31.2723 90.076 29.9054 90.076 27.6872C90.076 24.9408 92.4694 23.0544 95.868 23.0544C99.2315 23.0544 101.537 24.9408 101.615 27.6872H99.2102C99.0662 26.0987 97.7531 25.1399 95.8341 25.1399C93.9152 25.1399 92.6021 26.11 92.6021 27.522C92.6021 28.6474 93.4408 29.3095 95.4924 29.8165L97.2461 30.2471C100.512 31.0194 101.869 32.3313 101.869 34.6596C101.869 37.6376 99.4968 39.5027 95.724 39.5027C92.194 39.5027 89.8106 37.6814 89.6566 34.8023L92.0951 34.8024Z" fill="white"/>
<path d="M107.011 24.8859V27.6323H109.217V29.5187H107.011V35.9166C107.011 36.9105 107.452 37.3736 108.423 37.3736C108.685 37.3691 108.946 37.3507 109.206 37.3185V39.1937C108.77 39.2752 108.327 39.3121 107.883 39.3038C105.533 39.3038 104.617 38.4213 104.617 36.1706V29.5187H102.93V27.6323H104.617V24.8859H107.011Z" fill="white"/>
<path d="M110.496 33.4356C110.496 29.7841 112.647 27.4896 116 27.4896C119.365 27.4896 121.505 29.7841 121.505 33.4356C121.505 37.097 119.376 39.3815 116 39.3815C112.625 39.3815 110.496 37.097 110.496 33.4356ZM119.078 33.4356C119.078 30.9308 117.93 29.4524 116 29.4524C114.07 29.4524 112.923 30.942 112.923 33.4356C112.923 35.9504 114.07 37.4175 116 37.4175C117.93 37.4175 119.078 35.9504 119.078 33.4356Z" fill="white"/>
<path d="M123.469 27.6321H125.741V29.6074H125.796C125.95 28.9905 126.311 28.4453 126.82 28.0635C127.328 27.6816 127.952 27.4864 128.588 27.5107C128.862 27.5097 129.136 27.5395 129.404 27.5996V29.8277C129.057 29.7218 128.696 29.6732 128.334 29.6838C127.988 29.6697 127.643 29.7308 127.322 29.8626C127.002 29.9945 126.714 30.1941 126.478 30.4478C126.242 30.7015 126.064 31.0031 125.956 31.3322C125.848 31.6612 125.812 32.0097 125.851 32.3538V39.2373H123.469L123.469 27.6321Z" fill="white"/>
<path d="M140.387 35.829C140.067 37.9357 138.015 39.3815 135.39 39.3815C132.014 39.3815 129.919 37.1195 129.919 33.4906C129.919 29.8505 132.025 27.4896 135.29 27.4896C138.501 27.4896 140.52 29.6952 140.52 33.214V34.0302H132.323V34.1741C132.285 34.6012 132.339 35.0315 132.48 35.4363C132.621 35.8412 132.847 36.2113 133.142 36.5222C133.438 36.8331 133.796 37.0777 134.193 37.2396C134.59 37.4015 135.017 37.477 135.445 37.4613C136.008 37.514 136.573 37.3836 137.056 37.0895C137.539 36.7954 137.914 36.3533 138.125 35.8289L140.387 35.829ZM132.335 32.3653H138.137C138.158 31.9813 138.1 31.597 137.966 31.2365C137.831 30.876 137.624 30.5472 137.357 30.2706C137.09 29.9941 136.768 29.7757 136.412 29.6293C136.057 29.4829 135.675 29.4116 135.29 29.4199C134.902 29.4175 134.518 29.4921 134.159 29.6392C133.8 29.7862 133.473 30.0029 133.199 30.2768C132.924 30.5506 132.706 30.8762 132.558 31.2346C132.409 31.5931 132.334 31.9774 132.335 32.3653Z" fill="white"/>
<path d="M48.662 11.3384C49.1614 11.3025 49.6625 11.378 50.1293 11.5593C50.596 11.7405 51.0167 12.0232 51.3609 12.3867C51.7052 12.7503 51.9645 13.1857 52.1201 13.6616C52.2758 14.1375 52.3238 14.642 52.2608 15.1387C52.2608 17.5822 50.9402 18.9868 48.662 18.9868H45.8993V11.3384H48.662ZM47.0872 17.9051H48.5293C48.8862 17.9264 49.2433 17.8679 49.5747 17.7338C49.9061 17.5997 50.2034 17.3934 50.445 17.1299C50.6866 16.8664 50.8665 16.5524 50.9714 16.2106C51.0763 15.8689 51.1037 15.508 51.0516 15.1543C51.0999 14.802 51.0698 14.4434 50.9632 14.1042C50.8567 13.7649 50.6764 13.4534 50.4354 13.192C50.1943 12.9306 49.8984 12.7258 49.5689 12.5922C49.2393 12.4586 48.8843 12.3995 48.5293 12.4192H47.0872V17.9051Z" fill="white"/>
<path d="M53.6027 16.0981C53.5664 15.7188 53.6098 15.3361 53.7301 14.9745C53.8503 14.6129 54.0449 14.2805 54.3011 13.9985C54.5574 13.7165 54.8698 13.4912 55.2183 13.3371C55.5668 13.1829 55.9436 13.1033 56.3246 13.1033C56.7057 13.1033 57.0825 13.1829 57.431 13.3371C57.7795 13.4912 58.0919 13.7165 58.3481 13.9985C58.6044 14.2805 58.799 14.6129 58.9192 14.9745C59.0395 15.3361 59.0829 15.7188 59.0466 16.0981C59.0836 16.4778 59.0407 16.861 58.9208 17.2232C58.8008 17.5853 58.6064 17.9183 58.35 18.2009C58.0937 18.4834 57.781 18.7092 57.4322 18.8637C57.0834 19.0182 56.7061 19.098 56.3246 19.098C55.9431 19.098 55.5659 19.0182 55.2171 18.8637C54.8682 18.7092 54.5556 18.4834 54.2993 18.2009C54.0429 17.9183 53.8485 17.5853 53.7285 17.2232C53.6086 16.861 53.5657 16.4778 53.6027 16.0981ZM57.875 16.0981C57.875 14.8469 57.3129 14.1153 56.3265 14.1153C55.3364 14.1153 54.7794 14.8469 54.7794 16.0981C54.7794 17.3593 55.3364 18.0853 56.3265 18.0853C57.3129 18.0853 57.875 17.3542 57.875 16.0981Z" fill="white"/>
<path d="M66.2833 18.9866H65.1016L63.9087 14.7356H63.8185L62.6306 18.9866H61.4602L59.8692 13.2147H61.0246L62.0585 17.619H62.1437L63.3303 13.2147H64.4231L65.6098 17.619H65.6999L66.7289 13.2147H67.868L66.2833 18.9866Z" fill="white"/>
<path d="M69.2062 13.2147H70.3027V14.1317H70.3879C70.5323 13.8023 70.7758 13.5263 71.0846 13.3419C71.3933 13.1576 71.7519 13.0742 72.1103 13.1033C72.3911 13.0822 72.6731 13.1246 72.9354 13.2272C73.1977 13.3299 73.4335 13.4903 73.6253 13.6964C73.8172 13.9026 73.9602 14.1493 74.0438 14.4183C74.1274 14.6872 74.1494 14.9715 74.1081 15.2501V18.9866H72.969V15.5362C72.969 14.6086 72.566 14.1473 71.7235 14.1473C71.5328 14.1384 71.3425 14.1709 71.1655 14.2425C70.9885 14.314 70.8291 14.423 70.6982 14.5619C70.5673 14.7009 70.468 14.8665 70.4071 15.0474C70.3462 15.2283 70.3251 15.4202 70.3453 15.61V18.9867H69.2062L69.2062 13.2147Z" fill="white"/>
<path d="M75.9224 10.9615H77.0615V18.9866H75.9224V10.9615Z" fill="white"/>
<path d="M78.646 16.0982C78.6097 15.7188 78.6531 15.3361 78.7734 14.9745C78.8938 14.613 79.0883 14.2805 79.3446 13.9985C79.6009 13.7166 79.9134 13.4913 80.2618 13.3371C80.6103 13.1829 80.9872 13.1033 81.3683 13.1033C81.7493 13.1033 82.1262 13.1829 82.4747 13.3371C82.8232 13.4913 83.1356 13.7166 83.3919 13.9985C83.6482 14.2805 83.8428 14.613 83.9631 14.9745C84.0834 15.3361 84.1268 15.7188 84.0906 16.0982C84.1275 16.4779 84.0846 16.8611 83.9646 17.2233C83.8446 17.5854 83.6501 17.9185 83.3937 18.201C83.1374 18.4835 82.8247 18.7093 82.4759 18.8638C82.1271 19.0183 81.7498 19.0981 81.3683 19.0981C80.9868 19.0981 80.6095 19.0183 80.2606 18.8638C79.9118 18.7093 79.5992 18.4835 79.3428 18.201C79.0864 17.9185 78.892 17.5854 78.772 17.2233C78.652 16.8611 78.609 16.4779 78.646 16.0982ZM82.9183 16.0982C82.9183 14.847 82.3562 14.1154 81.3698 14.1154C80.3797 14.1154 79.8227 14.847 79.8227 16.0982C79.8227 17.3594 80.3797 18.0854 81.3698 18.0854C82.3562 18.0854 82.9183 17.3543 82.9183 16.0982Z" fill="white"/>
<path d="M85.2897 17.3543C85.2897 16.3153 86.0633 15.7163 87.4365 15.6312L89 15.5411V15.0429C89 14.4333 88.5969 14.089 87.8183 14.089C87.1824 14.089 86.7418 14.3225 86.6153 14.7306H85.5125C85.6289 13.7392 86.5615 13.1033 87.8709 13.1033C89.3179 13.1033 90.1341 13.8236 90.1341 15.0429V18.9866H89.0375V18.1755H88.9474C88.7645 18.4664 88.5076 18.7036 88.203 18.8628C87.8984 19.0221 87.557 19.0976 87.2137 19.0817C86.9714 19.1069 86.7265 19.0811 86.4948 19.0058C86.2631 18.9306 86.0497 18.8076 85.8684 18.6449C85.6872 18.4821 85.542 18.2832 85.4423 18.0609C85.3427 17.8386 85.2907 17.5979 85.2897 17.3543ZM89 16.8611V16.3785L87.5905 16.4687C86.7956 16.5218 86.4351 16.7922 86.4351 17.3011C86.4351 17.8206 86.8857 18.1229 87.5054 18.1229C87.6869 18.1412 87.8704 18.1229 88.0447 18.069C88.219 18.015 88.3807 17.9265 88.5202 17.8088C88.6596 17.6911 88.7739 17.5465 88.8564 17.3837C88.9388 17.2209 88.9876 17.0432 89 16.8611Z" fill="white"/>
<path d="M91.6306 16.0982C91.6306 14.2744 92.5682 13.119 94.0265 13.119C94.3873 13.1023 94.7453 13.1887 95.0587 13.3681C95.3721 13.5474 95.6281 13.8122 95.7966 14.1316H95.8817V10.9615H97.0208V18.9866H95.9293V18.0747H95.8391C95.6576 18.392 95.3928 18.6535 95.0733 18.831C94.7538 19.0085 94.3918 19.0952 94.0266 19.0818C92.5582 19.0818 91.6306 17.9264 91.6306 16.0982ZM92.8074 16.0982C92.8074 17.3224 93.3844 18.0591 94.3496 18.0591C95.3096 18.0591 95.903 17.3118 95.903 16.1032C95.903 14.9002 95.3034 14.1423 94.3496 14.1423C93.3906 14.1423 92.8074 14.884 92.8074 16.0982Z" fill="white"/>
<path d="M101.734 16.0981C101.698 15.7188 101.741 15.3361 101.861 14.9745C101.982 14.6129 102.176 14.2805 102.432 13.9985C102.689 13.7165 103.001 13.4912 103.35 13.3371C103.698 13.1829 104.075 13.1033 104.456 13.1033C104.837 13.1033 105.214 13.1829 105.562 13.3371C105.911 13.4912 106.223 13.7165 106.479 13.9985C106.736 14.2805 106.93 14.6129 107.051 14.9745C107.171 15.3361 107.214 15.7188 107.178 16.0981C107.215 16.4778 107.172 16.861 107.052 17.2232C106.932 17.5853 106.738 17.9183 106.481 18.2009C106.225 18.4834 105.912 18.7092 105.564 18.8637C105.215 19.0182 104.837 19.098 104.456 19.098C104.074 19.098 103.697 19.0182 103.348 18.8637C103 18.7092 102.687 18.4834 102.431 18.2009C102.174 17.9183 101.98 17.5853 101.86 17.2232C101.74 16.861 101.697 16.4778 101.734 16.0981ZM106.006 16.0981C106.006 14.8469 105.444 14.1153 104.458 14.1153C103.468 14.1153 102.911 14.8469 102.911 16.0981C102.911 17.3593 103.468 18.0853 104.458 18.0853C105.444 18.0853 106.006 17.3542 106.006 16.0981Z" fill="white"/>
<path d="M108.706 13.2147H109.803V14.1317H109.888C110.032 13.8023 110.276 13.5263 110.584 13.3419C110.893 13.1576 111.252 13.0742 111.61 13.1033C111.891 13.0822 112.173 13.1246 112.435 13.2272C112.697 13.3299 112.933 13.4903 113.125 13.6964C113.317 13.9026 113.46 14.1493 113.544 14.4183C113.627 14.6872 113.649 14.9715 113.608 15.2501V18.9866H112.469V15.5362C112.469 14.6086 112.066 14.1473 111.223 14.1473C111.033 14.1384 110.842 14.1709 110.665 14.2425C110.488 14.314 110.329 14.423 110.198 14.5619C110.067 14.7009 109.968 14.8665 109.907 15.0474C109.846 15.2283 109.825 15.4202 109.845 15.61V18.9867H108.706V13.2147Z" fill="white"/>
<path d="M120.045 11.7775V13.2408H121.296V14.2003H120.045V17.1682C120.045 17.7728 120.294 18.0376 120.861 18.0376C121.006 18.0371 121.151 18.0284 121.296 18.0113V18.9601C121.091 18.9967 120.884 19.0162 120.676 19.0184C119.409 19.0184 118.905 18.5727 118.905 17.4599V14.2002H117.988V13.2407H118.905V11.7775H120.045Z" fill="white"/>
<path d="M122.852 10.9615H123.981V14.1423H124.071C124.222 13.8099 124.473 13.5323 124.788 13.3472C125.103 13.1622 125.467 13.0788 125.831 13.1083C126.11 13.0931 126.39 13.1398 126.649 13.2449C126.908 13.3501 127.141 13.5112 127.331 13.7167C127.521 13.9222 127.663 14.1671 127.747 14.4339C127.832 14.7007 127.856 14.9828 127.819 15.2601V18.9867H126.678V15.5411C126.678 14.6192 126.249 14.1523 125.444 14.1523C125.248 14.1362 125.052 14.1631 124.867 14.2311C124.683 14.2992 124.516 14.4066 124.377 14.546C124.239 14.6854 124.133 14.8533 124.066 15.0381C123.999 15.2228 123.974 15.4199 123.991 15.6156V18.9866H122.852L122.852 10.9615Z" fill="white"/>
<path d="M134.461 17.4282C134.306 17.9558 133.971 18.4121 133.514 18.7173C133.056 19.0226 132.506 19.1574 131.96 19.0981C131.58 19.1081 131.202 19.0353 130.852 18.8847C130.503 18.734 130.191 18.5092 129.937 18.2257C129.683 17.9422 129.494 17.607 129.383 17.2432C129.272 16.8793 129.242 16.4957 129.294 16.1189C129.243 15.7409 129.274 15.3564 129.385 14.9915C129.496 14.6266 129.684 14.2898 129.936 14.0039C130.188 13.7179 130.499 13.4896 130.848 13.3342C131.196 13.1788 131.573 13.1001 131.955 13.1034C133.561 13.1034 134.53 14.2006 134.53 16.0131V16.4106H130.454V16.4744C130.436 16.6862 130.463 16.8994 130.532 17.1003C130.601 17.3013 130.712 17.4855 130.857 17.6412C131.002 17.7968 131.177 17.9206 131.373 18.0044C131.568 18.0882 131.779 18.1303 131.991 18.1279C132.264 18.1607 132.54 18.1116 132.784 17.987C133.029 17.8624 133.231 17.6679 133.364 17.4282L134.461 17.4282ZM130.454 15.5681H133.369C133.384 15.3744 133.357 15.1798 133.292 14.9969C133.227 14.8139 133.124 14.6467 132.99 14.5059C132.856 14.365 132.694 14.2538 132.515 14.1792C132.336 14.1046 132.143 14.0684 131.949 14.0729C131.752 14.0704 131.556 14.1074 131.374 14.1817C131.191 14.2559 131.025 14.366 130.886 14.5053C130.747 14.6447 130.637 14.8105 130.562 14.993C130.488 15.1756 130.451 15.3711 130.454 15.5681Z" fill="white"/>
</g>
<defs>
<clipPath id="clip0_869_725">
<rect width="153.388" height="51.2727" fill="white" transform="translate(0.177979 0.146965)"/>
</clipPath>
</defs>
</svg>
