<svg width="72" height="72" viewBox="0 0 72 72" fill="none" xmlns="http://www.w3.org/2000/svg">
<g id="device.svg" clip-path="url(#clip0_953_59)">
<path id="Vector" fill-rule="evenodd" clip-rule="evenodd" d="M27.2822 17.4259L43.9452 17.0828C46.246 17.0354 48.1495 18.862 48.1968 21.1629L48.7974 50.3233C48.8448 52.6239 47.0181 54.5274 44.7175 54.5749L28.0543 54.9179C25.7537 54.9654 23.8501 53.1386 23.8028 50.838L23.2022 21.6774C23.1548 19.3768 24.9814 17.4734 27.2822 17.4259ZM54.5742 27.2828C55.7246 27.2589 56.6764 28.1723 56.6999 29.3228L56.9575 41.8201C56.9811 42.9704 56.0678 43.9222 54.9175 43.9459C53.767 43.9694 52.8154 43.0562 52.7917 41.9059L52.5342 29.4085C52.5106 28.2581 53.4239 27.3064 54.5742 27.2828ZM34.067 43.3333L34.1099 45.4162C34.1218 45.9914 34.5977 46.448 35.1729 46.4363L37.2558 46.3934C37.8309 46.3815 38.2876 45.9055 38.2758 45.3304L38.2329 43.2476C38.2211 42.6723 37.7452 42.2156 37.1699 42.2275L35.0871 42.2704C34.512 42.2823 34.0553 42.7582 34.067 43.3333ZM17.0822 28.0548C18.2326 28.0311 19.1843 28.9445 19.208 30.0948L19.4654 42.5922C19.4891 43.7425 18.5757 44.6943 17.4254 44.718C16.275 44.7416 15.3232 43.8283 15.2996 42.6779L15.0422 30.1806C15.0185 29.0303 15.9318 28.0785 17.0822 28.0548Z" fill="#041A8E"/>
</g>
<defs>
<clipPath id="clip0_953_59">
<rect width="50" height="50" fill="white" transform="translate(0.652161 36.7279) rotate(-46.1798)"/>
</clipPath>
</defs>
</svg>
