<svg width="196" height="77" viewBox="0 0 196 77" fill="none" xmlns="http://www.w3.org/2000/svg">
<g clip-path="url(#clip0_869_712)">
<path d="M177.046 13.5537H19.3619C15.8784 13.5537 13.0545 16.3776 13.0545 19.8611V57.7052C13.0545 61.1887 15.8784 64.0126 19.3619 64.0126H177.046C180.529 64.0126 183.353 61.1887 183.353 57.7052V19.8611C183.353 16.3776 180.529 13.5537 177.046 13.5537Z" fill="black"/>
<path d="M177.046 14.5629C178.451 14.5629 179.799 15.1211 180.792 16.1147C181.786 17.1083 182.344 18.4559 182.344 19.8611V57.7052C182.344 59.1104 181.786 60.458 180.792 61.4516C179.799 62.4452 178.451 63.0034 177.046 63.0034H19.3619C17.9567 63.0034 16.6091 62.4452 15.6155 61.4516C14.6219 60.458 14.0637 59.1104 14.0637 57.7052V19.8611C14.0637 18.4559 14.6219 17.1083 15.6155 16.1147C16.6091 15.1211 17.9567 14.5629 19.3619 14.5629H177.046ZM177.046 13.5537H19.3619C17.689 13.5537 16.0847 14.2183 14.9019 15.4011C13.719 16.584 13.0545 18.1883 13.0545 19.8611V57.7052C13.0545 59.3781 13.719 60.9824 14.9019 62.1652C16.0847 63.3481 17.689 64.0126 19.3619 64.0126H177.046C178.719 64.0126 180.323 63.3481 181.506 62.1652C182.689 60.9824 183.353 59.3781 183.353 57.7052V19.8611C183.353 18.1883 182.689 16.584 181.506 15.4011C180.323 14.2183 178.719 13.5537 177.046 13.5537Z" fill="#A6A6A6"/>
<path d="M72.8737 26.4712C72.8952 26.9339 72.8224 27.3961 72.6597 27.8298C72.4971 28.2635 72.248 28.6596 71.9276 28.9941C71.5699 29.3657 71.1378 29.6578 70.6596 29.8512C70.1815 30.0447 69.6679 30.1352 69.1524 30.1168C68.3702 30.1107 67.6073 29.8739 66.9592 29.4361C66.311 28.9983 65.8065 28.3789 65.5089 27.6556C65.2112 26.9323 65.1336 26.1372 65.2858 25.37C65.438 24.6028 65.8133 23.8976 66.3645 23.3427C66.7268 22.9729 67.1612 22.6812 67.6407 22.486C68.1202 22.2907 68.6347 22.1959 69.1524 22.2074C69.6857 22.2056 70.2137 22.313 70.704 22.5228C71.1605 22.7069 71.5668 22.9965 71.8898 23.368L71.2212 24.0365C70.9694 23.7371 70.6514 23.5002 70.2924 23.3448C69.9333 23.1894 69.5431 23.1196 69.1524 23.1409C68.7583 23.139 68.368 23.2166 68.0047 23.3692C67.6414 23.5218 67.3127 23.7462 67.0382 24.0289C66.7637 24.3116 66.5492 24.6468 66.4074 25.0145C66.2656 25.3821 66.1996 25.7746 66.2131 26.1684C66.2049 26.7564 66.371 27.3337 66.6904 27.8275C67.0099 28.3212 67.4684 28.7093 68.0081 28.9427C68.5479 29.1762 69.1447 29.2445 69.7233 29.1392C70.3018 29.0338 70.8362 28.7595 71.259 28.3508C71.6472 27.9301 71.8711 27.3839 71.8898 26.8118H69.1524V25.9035H72.8233C72.8569 26.0909 72.8738 26.2808 72.8737 26.4712ZM78.6513 23.3175H75.2453V25.7143H78.3485V26.6226H75.2453V29.0194H78.6513V29.9528H74.2361V22.384H78.6513V23.3175ZM82.7889 29.9528H81.8176V23.3175H79.6983V22.384H84.9586V23.3175H82.7889V29.9528ZM88.6674 29.9528V22.384H89.6387V29.9528H88.6674ZM93.9529 29.9528H92.9816V23.3175H90.8623V22.384H96.0596V23.3175H93.9529V29.9528ZM105.912 28.9689C105.174 29.7023 104.176 30.1139 103.136 30.1139C102.096 30.1139 101.099 29.7023 100.361 28.9689C99.6444 28.2102 99.245 27.2059 99.245 26.1621C99.245 25.1183 99.6444 24.1141 100.361 23.3554C100.725 22.9892 101.157 22.6986 101.633 22.5003C102.11 22.302 102.62 22.1999 103.136 22.1999C103.652 22.1999 104.163 22.302 104.64 22.5003C105.116 22.6986 105.548 22.9892 105.912 23.3554C106.631 24.1126 107.033 25.1174 107.033 26.1621C107.033 27.2068 106.631 28.2116 105.912 28.9689ZM101.08 28.3382C101.626 28.882 102.366 29.1874 103.136 29.1874C103.907 29.1874 104.647 28.882 105.193 28.3382C105.732 27.744 106.03 26.9706 106.03 26.1684C106.03 25.3663 105.732 24.5928 105.193 23.9987C104.647 23.4549 103.907 23.1495 103.136 23.1495C102.366 23.1495 101.626 23.4549 101.08 23.9987C100.541 24.5928 100.243 25.3663 100.243 26.1684C100.243 26.9706 100.541 27.744 101.08 28.3382ZM108.397 29.9528V22.384H109.583L113.266 28.2751V22.384H114.237V29.9528H113.228L109.381 23.7843V29.9528H108.397Z" fill="white" stroke="white" stroke-width="0.252294" stroke-miterlimit="10"/>
<path d="M99.0114 40.9908C97.9521 40.9957 96.918 41.3144 96.0397 41.9065C95.1614 42.4987 94.4781 43.3377 94.0762 44.3178C93.6743 45.2978 93.5717 46.375 93.7814 47.4133C93.9912 48.4516 94.5037 49.4046 95.2545 50.1518C96.0053 50.8991 96.9606 51.4072 97.9999 51.612C99.0392 51.8169 100.116 51.7092 101.094 51.3027C102.072 50.8962 102.908 50.209 103.496 49.3279C104.084 48.4468 104.398 47.4113 104.398 46.352C104.408 45.643 104.276 44.9391 104.008 44.2824C103.741 43.6256 103.344 43.0294 102.842 42.5291C102.339 42.0289 101.741 41.6349 101.083 41.3706C100.425 41.1063 99.7203 40.9771 99.0114 40.9908ZM99.0114 49.6066C98.3599 49.6522 97.7098 49.5007 97.1456 49.1719C96.5814 48.8431 96.1291 48.3521 95.8476 47.7629C95.5661 47.1736 95.4684 46.5133 95.5671 45.8678C95.6659 45.2223 95.9565 44.6214 96.4013 44.1432C96.8461 43.6651 97.4245 43.3318 98.0612 43.1867C98.6979 43.0416 99.3635 43.0914 99.9716 43.3296C100.58 43.5679 101.102 43.9835 101.471 44.5225C101.839 45.0615 102.037 45.699 102.039 46.352C102.059 46.7658 101.996 47.1795 101.854 47.5686C101.712 47.9578 101.494 48.3145 101.212 48.6178C100.929 48.9212 100.589 49.1649 100.211 49.3348C99.8336 49.5046 99.4255 49.597 99.0114 49.6066ZM87.2671 40.9908C86.2072 40.9933 85.1719 41.3098 84.292 41.9004C83.412 42.491 82.7268 43.3292 82.3229 44.3091C81.9191 45.2889 81.8147 46.3665 82.023 47.4057C82.2313 48.4448 82.7429 49.3989 83.4932 50.1474C84.2434 50.896 85.1987 51.4053 86.2384 51.6112C87.278 51.817 88.3553 51.7101 89.3342 51.3039C90.3131 50.8978 91.1497 50.2106 91.7383 49.3293C92.3268 48.4479 92.6409 47.4118 92.6409 46.352C92.6512 45.643 92.5187 44.9391 92.2514 44.2824C91.984 43.6256 91.5872 43.0294 91.0846 42.5291C90.582 42.0289 89.9839 41.6349 89.3259 41.3706C88.6679 41.1063 87.9634 40.9771 87.2544 40.9908H87.2671ZM87.2671 49.6066C86.6153 49.6547 85.9641 49.5055 85.3984 49.1784C84.8326 48.8513 84.3784 48.3614 84.0949 47.7726C83.8114 47.1837 83.7118 46.5231 83.809 45.8769C83.9062 45.2306 84.1957 44.6285 84.6398 44.1491C85.0839 43.6697 85.6621 43.335 86.2991 43.1888C86.9361 43.0425 87.6023 43.0914 88.2111 43.3291C88.8199 43.5668 89.343 43.9823 89.7124 44.5215C90.0817 45.0606 90.2802 45.6985 90.282 46.352C90.3023 46.7658 90.2396 47.1795 90.0975 47.5686C89.9554 47.9578 89.7368 48.3145 89.4546 48.6178C89.1725 48.9212 88.8324 49.1649 88.4545 49.3348C88.0767 49.5046 87.6686 49.597 87.2544 49.6066H87.2671ZM73.2773 42.6433V44.9139H78.7269C78.6415 45.9834 78.1969 46.9926 77.4654 47.7775C76.9202 48.3328 76.2648 48.7679 75.5413 49.0547C74.8178 49.3414 74.0423 49.4736 73.2647 49.4426C71.6588 49.4426 70.1187 48.8047 68.9831 47.6691C67.8476 46.5336 67.2097 44.9935 67.2097 43.3876C67.2097 41.7817 67.8476 40.2415 68.9831 39.106C70.1187 37.9704 71.6588 37.3325 73.2647 37.3325C74.8009 37.3074 76.2844 37.8927 77.3897 38.9598L78.9918 37.3577C78.2456 36.6021 77.3554 36.004 76.3738 35.5988C75.3922 35.1936 74.3392 34.9896 73.2773 34.9988C72.1559 34.9551 71.0372 35.1383 69.9882 35.5374C68.9392 35.9364 67.9816 36.5431 67.1728 37.3212C66.3639 38.0992 65.7204 39.0324 65.2809 40.0651C64.8413 41.0977 64.6147 42.2085 64.6147 43.3308C64.6147 44.4531 64.8413 45.5638 65.2809 46.5965C65.7204 47.6291 66.3639 48.5624 67.1728 49.3404C67.9816 50.1184 68.9392 50.7251 69.9882 51.1242C71.0372 51.5233 72.1559 51.7065 73.2773 51.6628C74.3571 51.7116 75.4348 51.5286 76.4379 51.126C77.441 50.7235 78.3462 50.1108 79.0927 49.3291C80.4143 47.877 81.12 45.9682 81.0606 44.0057C81.0647 43.5276 81.0224 43.0502 80.9345 42.5802L73.2773 42.6433ZM130.435 44.4093C130.106 43.4415 129.49 42.5963 128.67 41.9859C127.85 41.3754 126.864 41.0284 125.843 40.9908C125.153 40.9894 124.47 41.1296 123.836 41.4027C123.202 41.6757 122.632 42.0759 122.159 42.5784C121.686 43.0808 121.321 43.675 121.087 44.3241C120.852 44.9731 120.754 45.6633 120.797 46.352C120.782 47.0571 120.909 47.758 121.17 48.4129C121.432 49.0678 121.823 49.6632 122.32 50.1636C122.817 50.6641 123.409 51.0592 124.062 51.3255C124.715 51.5917 125.415 51.7236 126.12 51.7133C127.003 51.718 127.873 51.5039 128.652 51.09C129.431 50.6761 130.096 50.0754 130.586 49.3417L128.757 48.0802C128.484 48.5353 128.097 48.9118 127.635 49.1727C127.173 49.4336 126.651 49.5701 126.12 49.5688C125.574 49.5896 125.034 49.4455 124.57 49.1553C124.107 48.8651 123.742 48.4421 123.522 47.9415L130.7 44.977L130.435 44.4093ZM123.118 46.2006C123.093 45.8105 123.145 45.4191 123.273 45.0495C123.4 44.6798 123.6 44.3394 123.861 44.0481C124.122 43.7567 124.438 43.5203 124.791 43.3528C125.145 43.1852 125.528 43.0898 125.919 43.0722C126.325 43.0454 126.731 43.1387 127.086 43.3405C127.44 43.5424 127.727 43.8438 127.912 44.2075L123.118 46.2006ZM117.29 51.3979H119.649V35.6295H117.29V51.3979ZM113.43 42.1892H113.342C112.986 41.7917 112.551 41.4738 112.064 41.2564C111.577 41.039 111.049 40.927 110.516 40.9277C109.137 40.9945 107.837 41.5892 106.885 42.5885C105.933 43.5878 105.402 44.9151 105.402 46.2953C105.402 47.6754 105.933 49.0027 106.885 50.002C107.837 51.0013 109.137 51.596 110.516 51.6628C111.051 51.6718 111.581 51.5635 112.069 51.3456C112.557 51.1276 112.991 50.8053 113.342 50.4013H113.417V51.1708C113.417 53.227 112.32 54.3245 110.554 54.3245C109.966 54.3107 109.395 54.1223 108.914 53.7831C108.433 53.4438 108.064 52.9692 107.854 52.4197L105.798 53.2775C106.185 54.219 106.845 55.0234 107.692 55.5876C108.539 56.1517 109.536 56.4499 110.554 56.4438C113.316 56.4438 115.6 54.8165 115.6 50.8555V41.3061H113.43V42.1892ZM110.73 49.6066C109.917 49.5349 109.159 49.161 108.608 48.5585C108.056 47.9561 107.75 47.1689 107.75 46.352C107.75 45.5352 108.056 44.7479 108.608 44.1455C109.159 43.5431 109.917 43.1691 110.73 43.0974C111.134 43.1181 111.529 43.2194 111.893 43.3952C112.257 43.571 112.581 43.8178 112.848 44.1211C113.115 44.4244 113.319 44.778 113.447 45.1612C113.575 45.5443 113.625 45.9492 113.594 46.352C113.628 46.7566 113.58 47.1639 113.453 47.5493C113.325 47.9348 113.121 48.2904 112.852 48.5946C112.583 48.8989 112.256 49.1454 111.889 49.3194C111.522 49.4933 111.124 49.591 110.718 49.6066H110.73ZM141.485 35.6295H135.846V51.3979H138.205V45.4185H141.498C142.17 45.4668 142.845 45.3761 143.481 45.152C144.116 44.9279 144.699 44.5753 145.193 44.116C145.686 43.6568 146.079 43.1009 146.349 42.4829C146.618 41.8649 146.756 41.1981 146.756 40.524C146.756 39.85 146.618 39.1832 146.349 38.5652C146.079 37.9472 145.686 37.3912 145.193 36.932C144.699 36.4728 144.116 36.1201 143.481 35.896C142.845 35.6719 142.17 35.5812 141.498 35.6295H141.485ZM141.485 43.1983H138.193V37.8245H141.536C142.253 37.8245 142.941 38.1095 143.449 38.617C143.956 39.1244 144.241 39.8127 144.241 40.5303C144.241 41.248 143.956 41.9362 143.449 42.4437C142.941 42.9511 142.253 43.2362 141.536 43.2362L141.485 43.1983ZM156.03 40.9277C155.171 40.8764 154.316 41.077 153.57 41.5051C152.823 41.9331 152.218 42.5699 151.829 43.3371L153.923 44.2075C154.13 43.827 154.442 43.5147 154.823 43.3086C155.204 43.1026 155.636 43.0117 156.068 43.047C156.367 43.012 156.671 43.037 156.96 43.1205C157.25 43.2041 157.52 43.3445 157.755 43.5335C157.99 43.7226 158.185 43.9565 158.328 44.2217C158.472 44.4868 158.561 44.7779 158.591 45.0779V45.2419C157.833 44.8408 156.988 44.6328 156.131 44.6364C153.873 44.6364 151.59 45.8979 151.59 48.1812C151.612 48.668 151.731 49.1454 151.941 49.5852C152.151 50.025 152.447 50.4183 152.812 50.7417C153.177 51.0651 153.602 51.3121 154.064 51.4682C154.526 51.6242 155.014 51.6861 155.5 51.6502C156.094 51.6929 156.689 51.5748 157.221 51.3085C157.754 51.0421 158.205 50.6373 158.528 50.1364H158.603V51.3979H160.874V45.3302C160.874 42.5676 158.78 40.9655 156.093 40.9655L156.03 40.9277ZM155.74 49.5688C154.97 49.5688 153.898 49.1777 153.898 48.2316C153.898 46.9701 155.235 46.5539 156.421 46.5539C157.17 46.5354 157.911 46.7183 158.565 47.0837C158.487 47.7666 158.164 48.3981 157.656 48.8617C157.148 49.3253 156.49 49.5899 155.803 49.6066L155.74 49.5688ZM169.149 41.3061L166.45 48.1433H166.374L163.573 41.3061H161.051L165.251 50.8681L162.854 56.1789H165.314L171.773 41.3061H169.149ZM147.944 51.3979H150.303V35.6295H147.944V51.3979Z" fill="white"/>
<path d="M26.2255 23.0653C25.8143 23.5587 25.6068 24.1903 25.6452 24.8314V52.7351C25.6068 53.3762 25.8143 54.0078 26.2255 54.5012L26.3138 54.5895L41.9434 38.9725V38.6066L26.3138 22.977L26.2255 23.0653Z" fill="url(#paint0_linear_869_712)"/>
<path d="M47.1151 44.1825L41.9431 38.9726V38.6068L47.1151 33.3843L47.2286 33.4473L53.4224 36.9668C55.1885 37.9634 55.1885 39.6033 53.4224 40.6125L47.2538 44.1194L47.1151 44.1825Z" fill="url(#paint1_linear_869_712)"/>
<path d="M47.2664 44.1066L41.943 38.7832L26.225 54.5012C26.585 54.8176 27.0442 54.9984 27.5233 55.0122C28.0024 55.026 28.4713 54.872 28.8489 54.5768L47.279 44.1066" fill="url(#paint2_linear_869_712)"/>
<path d="M47.2662 33.4598L28.8361 22.9896C28.4585 22.6944 27.9897 22.5404 27.5106 22.5542C27.0315 22.5681 26.5723 22.7488 26.2123 23.0652L41.9428 38.7832L47.2662 33.4598Z" fill="url(#paint3_linear_869_712)"/>
<path opacity="0.2" d="M47.115 43.9931L28.8363 54.4002C28.4721 54.6725 28.0296 54.8197 27.5748 54.8197C27.1201 54.8197 26.6775 54.6725 26.3133 54.4002L26.225 54.4885L26.3133 54.5768C26.6767 54.8511 27.1196 54.9994 27.5748 54.9994C28.0301 54.9994 28.4729 54.8511 28.8363 54.5768L47.2664 44.1066L47.115 43.9931Z" fill="black"/>
<path opacity="0.12" d="M26.2255 54.3245C25.8143 53.8312 25.6068 53.1996 25.6452 52.5585V52.7477C25.6068 53.3888 25.8143 54.0204 26.2255 54.5138L26.3138 54.4255L26.2255 54.3245ZM53.4228 40.4231L47.1155 43.9931L47.229 44.1066L53.4228 40.5997C53.7743 40.4346 54.0759 40.1798 54.2974 39.8608C54.5189 39.5419 54.6523 39.1702 54.6843 38.7832C54.6133 39.1348 54.4627 39.4654 54.2441 39.7497C54.0254 40.034 53.7444 40.2644 53.4228 40.4231Z" fill="black"/>
<path opacity="0.25" d="M28.836 23.1661L53.4221 37.1433C53.7437 37.302 54.0246 37.5324 54.2433 37.8167C54.462 38.1009 54.6126 38.4316 54.6835 38.7832C54.6516 38.3962 54.5182 38.0245 54.2967 37.7055C54.0752 37.3866 53.7735 37.1317 53.4221 36.9666L28.836 22.9895C27.0699 21.993 25.6318 22.8256 25.6318 24.8439V25.0331C25.6697 23.0022 27.0825 22.1696 28.836 23.1661Z" fill="white"/>
</g>
<defs>
<linearGradient id="paint0_linear_869_712" x1="40.5558" y1="24.5412" x2="19.3883" y2="45.7087" gradientUnits="userSpaceOnUse">
<stop stop-color="#00A0FF"/>
<stop offset="0.01" stop-color="#00A1FF"/>
<stop offset="0.26" stop-color="#00BEFF"/>
<stop offset="0.51" stop-color="#00D2FF"/>
<stop offset="0.76" stop-color="#00DFFF"/>
<stop offset="1" stop-color="#00E3FF"/>
</linearGradient>
<linearGradient id="paint1_linear_869_712" x1="55.7309" y1="38.7834" x2="25.2159" y2="38.7834" gradientUnits="userSpaceOnUse">
<stop stop-color="#FFE000"/>
<stop offset="0.41" stop-color="#FFBD00"/>
<stop offset="0.78" stop-color="#FFA500"/>
<stop offset="1" stop-color="#FF9C00"/>
</linearGradient>
<linearGradient id="paint2_linear_869_712" x1="44.3776" y1="41.6846" x2="15.6665" y2="70.3831" gradientUnits="userSpaceOnUse">
<stop stop-color="#FF3A44"/>
<stop offset="1" stop-color="#C31162"/>
</linearGradient>
<linearGradient id="paint3_linear_869_712" x1="22.2639" y1="13.7808" x2="35.0804" y2="26.5974" gradientUnits="userSpaceOnUse">
<stop stop-color="#32A071"/>
<stop offset="0.07" stop-color="#2DA771"/>
<stop offset="0.48" stop-color="#15CF74"/>
<stop offset="0.8" stop-color="#06E775"/>
<stop offset="1" stop-color="#00F076"/>
</linearGradient>
<clipPath id="clip0_869_712">
<rect width="195.528" height="75.6883" fill="white" transform="translate(0.440002 0.939224)"/>
</clipPath>
</defs>
</svg>
