<svg width="171" height="52" viewBox="0 0 171 52" fill="none" xmlns="http://www.w3.org/2000/svg">
<path d="M164.431 0.553848H6.74736C3.2639 0.553848 0.440002 3.37775 0.440002 6.86121V44.7054C0.440002 48.1888 3.2639 51.0127 6.74736 51.0127H164.431C167.915 51.0127 170.739 48.1888 170.739 44.7054V6.86121C170.739 3.37775 167.915 0.553848 164.431 0.553848Z" fill="black"/>
<path d="M164.431 1.56303C165.837 1.56303 167.184 2.12123 168.178 3.11483C169.171 4.10843 169.73 5.45604 169.73 6.86121V44.7054C169.73 46.1105 169.171 47.4581 168.178 48.4517C167.184 49.4453 165.837 50.0035 164.431 50.0035H6.74736C5.3422 50.0035 3.99458 49.4453 3.00098 48.4517C2.00738 47.4581 1.44918 46.1105 1.44918 44.7054V6.86121C1.44918 5.45604 2.00738 4.10843 3.00098 3.11483C3.99458 2.12123 5.3422 1.56303 6.74736 1.56303H164.431ZM164.431 0.553848H6.74736C5.07455 0.553848 3.47024 1.21837 2.28739 2.40123C1.10453 3.58409 0.440002 5.18839 0.440002 6.86121V44.7054C0.440002 46.3782 1.10453 47.9825 2.28739 49.1653C3.47024 50.3482 5.07455 51.0127 6.74736 51.0127H164.431C166.104 51.0127 167.708 50.3482 168.891 49.1653C170.074 47.9825 170.739 46.3782 170.739 44.7054V6.86121C170.739 5.18839 170.074 3.58409 168.891 2.40123C167.708 1.21837 166.104 0.553848 164.431 0.553848Z" fill="#A6A6A6"/>
<path d="M60.2592 13.4713C60.2807 13.934 60.2079 14.3962 60.0452 14.8299C59.8826 15.2636 59.6335 15.6597 59.3131 15.9942C58.9554 16.3659 58.5233 16.6579 58.0451 16.8514C57.567 17.0448 57.0534 17.1353 56.5379 17.117C55.7557 17.1108 54.9928 16.874 54.3447 16.4362C53.6965 15.9984 53.192 15.379 52.8944 14.6557C52.5967 13.9324 52.5191 13.1373 52.6713 12.3701C52.8235 11.6029 53.1988 10.8977 53.75 10.3428C54.1123 9.97296 54.5467 9.68136 55.0262 9.48608C55.5057 9.2908 56.0202 9.19599 56.5379 9.20753C57.0712 9.20575 57.5992 9.31307 58.0895 9.52289C58.546 9.70701 58.9523 9.99665 59.2753 10.3681L58.6067 11.0367C58.3549 10.7372 58.0369 10.5004 57.6779 10.3449C57.3188 10.1895 56.9285 10.1197 56.5379 10.141C56.1438 10.1391 55.7535 10.2167 55.3902 10.3693C55.0269 10.5219 54.6982 10.7463 54.4237 11.029C54.1492 11.3117 53.9347 11.647 53.7929 12.0146C53.6511 12.3823 53.5851 12.7747 53.5986 13.1685C53.5904 13.7566 53.7564 14.3339 54.0759 14.8276C54.3954 15.3213 54.8539 15.7094 55.3936 15.9428C55.9334 16.1763 56.5302 16.2446 57.1088 16.1393C57.6873 16.0339 58.2217 15.7596 58.6445 15.3509C59.0327 14.9302 59.2566 14.384 59.2753 13.8119H56.5379V12.9036H60.2088C60.2424 13.091 60.2593 13.281 60.2592 13.4713ZM66.0368 10.3176H62.6308V12.7144H65.734V13.6227H62.6308V16.0195H66.0368V16.953H61.6216V9.38413H66.0368V10.3176ZM70.1744 16.953H69.2031V10.3176H67.0838V9.38413H72.3441V10.3176H70.1744V16.953ZM76.0528 16.953V9.38413H77.0242V16.953H76.0528ZM81.3384 16.953H80.3671V10.3176H78.2478V9.38413H83.4451V10.3176H81.3384V16.953ZM93.2972 15.969C92.5597 16.7024 91.562 17.114 90.5219 17.114C89.4819 17.114 88.4841 16.7024 87.7467 15.969C87.0299 15.2103 86.6305 14.206 86.6305 13.1622C86.6305 12.1184 87.0299 11.1142 87.7467 10.3555C88.1102 9.98931 88.5425 9.69871 89.0188 9.5004C89.4951 9.30209 90.006 9.2 90.5219 9.2C91.0379 9.2 91.5487 9.30209 92.025 9.5004C92.5013 9.69871 92.9337 9.98931 93.2972 10.3555C94.0168 11.1128 94.4181 12.1175 94.4181 13.1622C94.4181 14.2069 94.0168 15.2117 93.2972 15.969ZM88.4657 15.3383C89.0119 15.8821 89.7512 16.1875 90.5219 16.1875C91.2927 16.1875 92.032 15.8821 92.5781 15.3383C93.1171 14.7441 93.4156 13.9707 93.4156 13.1685C93.4156 12.3664 93.1171 11.5929 92.5781 10.9988C92.032 10.455 91.2927 10.1496 90.5219 10.1496C89.7512 10.1496 89.0119 10.455 88.4657 10.9988C87.9268 11.5929 87.6282 12.3664 87.6282 13.1685C87.6282 13.9707 87.9268 14.7441 88.4657 15.3383ZM95.7823 16.953V9.38413H96.968L100.652 15.2752V9.38413H101.623V16.953H100.614L96.7662 10.7844V16.953H95.7823Z" fill="white" stroke="white" stroke-width="0.252294" stroke-miterlimit="10"/>
<path d="M86.3969 27.9909C85.3376 27.9959 84.3035 28.3145 83.4252 28.9067C82.5469 29.4988 81.8636 30.3378 81.4617 31.3179C81.0598 32.298 80.9572 33.3751 81.1669 34.4134C81.3767 35.4518 81.8892 36.4047 82.64 37.1519C83.3908 37.8992 84.3461 38.4073 85.3854 38.6122C86.4247 38.817 87.5014 38.7093 88.4795 38.3028C89.4577 37.8963 90.2935 37.2092 90.8815 36.3281C91.4695 35.447 91.7833 34.4114 91.7833 33.3521C91.7936 32.6431 91.6611 31.9393 91.3938 31.2825C91.1264 30.6257 90.7296 30.0295 90.227 29.5293C89.7244 29.029 89.1263 28.635 88.4683 28.3707C87.8103 28.1065 87.1058 27.9773 86.3969 27.9909ZM86.3969 36.6067C85.7454 36.6523 85.0953 36.5008 84.5311 36.172C83.9669 35.8432 83.5146 35.3523 83.2331 34.763C82.9516 34.1738 82.8539 33.5135 82.9526 32.8679C83.0514 32.2224 83.342 31.6215 83.7868 31.1433C84.2316 30.6652 84.81 30.3319 85.4467 30.1868C86.0834 30.0417 86.749 30.0915 87.3571 30.3298C87.9651 30.568 88.4874 30.9836 88.8561 31.5226C89.2248 32.0616 89.4228 32.6991 89.4244 33.3521C89.4447 33.7659 89.382 34.1796 89.2399 34.5687C89.0978 34.9579 88.8792 35.3146 88.597 35.618C88.3149 35.9213 87.9748 36.1651 87.597 36.3349C87.2191 36.5047 86.811 36.5971 86.3969 36.6067ZM74.6526 27.9909C73.5927 27.9934 72.5574 28.3099 71.6775 28.9005C70.7975 29.4912 70.1123 30.3293 69.7084 31.3092C69.3046 32.2891 69.2002 33.3666 69.4085 34.4058C69.6168 35.4449 70.1284 36.399 70.8787 37.1476C71.6289 37.8961 72.5842 38.4054 73.6239 38.6113C74.6635 38.8171 75.7408 38.7102 76.7197 38.3041C77.6986 37.8979 78.5352 37.2108 79.1238 36.3294C79.7123 35.448 80.0264 34.412 80.0264 33.3521C80.0367 32.6431 79.9042 31.9393 79.6369 31.2825C79.3695 30.6257 78.9727 30.0295 78.4701 29.5293C77.9675 29.029 77.3694 28.635 76.7114 28.3707C76.0534 28.1065 75.3489 27.9773 74.6399 27.9909H74.6526ZM74.6526 36.6067C74.0008 36.6549 73.3496 36.5057 72.7839 36.1785C72.2181 35.8514 71.7639 35.3615 71.4804 34.7727C71.1969 34.1838 71.0973 33.5233 71.1945 32.877C71.2917 32.2307 71.5812 31.6287 72.0253 31.1492C72.4694 30.6698 73.0476 30.3352 73.6846 30.1889C74.3216 30.0427 74.9878 30.0916 75.5966 30.3293C76.2054 30.567 76.7285 30.9824 77.0979 31.5216C77.4672 32.0607 77.6657 32.6986 77.6675 33.3521C77.6878 33.7659 77.6251 34.1796 77.483 34.5687C77.3409 34.9579 77.1223 35.3146 76.8401 35.618C76.558 35.9213 76.2179 36.1651 75.84 36.3349C75.4622 36.5047 75.0541 36.5971 74.6399 36.6067H74.6526ZM60.6628 29.6434V31.9141H66.1124C66.0269 32.9835 65.5824 33.9927 64.8509 34.7776C64.3057 35.3329 63.6503 35.768 62.9268 36.0548C62.2033 36.3416 61.4278 36.4737 60.6502 36.4427C59.0443 36.4427 57.5042 35.8048 56.3686 34.6693C55.2331 33.5337 54.5952 31.9936 54.5952 30.3877C54.5952 28.7818 55.2331 27.2416 56.3686 26.1061C57.5042 24.9706 59.0443 24.3326 60.6502 24.3326C62.1864 24.3076 63.6699 24.8928 64.7752 25.9599L66.3773 24.3578C65.6311 23.6023 64.7409 23.0041 63.7593 22.5989C62.7777 22.1937 61.7247 21.9897 60.6628 21.9989C59.5414 21.9552 58.4227 22.1384 57.3737 22.5375C56.3247 22.9366 55.3671 23.5433 54.5583 24.3213C53.7494 25.0993 53.1059 26.0326 52.6664 27.0652C52.2268 28.0979 52.0002 29.2086 52.0002 30.3309C52.0002 31.4532 52.2268 32.564 52.6664 33.5966C53.1059 34.6293 53.7494 35.5625 54.5583 36.3406C55.3671 37.1186 56.3247 37.7253 57.3737 38.1243C58.4227 38.5234 59.5414 38.7066 60.6628 38.6629C61.7426 38.7117 62.8203 38.5287 63.8234 38.1261C64.8265 37.7236 65.7317 37.1109 66.4782 36.3292C67.7998 34.8772 68.5055 32.9683 68.4461 31.0058C68.4502 30.5277 68.4079 30.0503 68.32 29.5803L60.6628 29.6434ZM117.82 31.4095C117.491 30.4416 116.876 29.5965 116.056 28.986C115.236 28.3755 114.25 28.0285 113.228 27.9909C112.538 27.9895 111.855 28.1297 111.222 28.4028C110.588 28.6759 110.017 29.076 109.544 29.5785C109.071 30.081 108.706 30.6751 108.472 31.3242C108.238 31.9732 108.139 32.6635 108.182 33.3521C108.167 34.0572 108.294 34.7581 108.556 35.413C108.817 36.0679 109.208 36.6633 109.705 37.1638C110.202 37.6642 110.795 38.0593 111.448 38.3256C112.101 38.5918 112.801 38.7237 113.506 38.7134C114.388 38.7181 115.258 38.504 116.037 38.0901C116.817 37.6762 117.481 37.0755 117.971 36.3418L116.142 35.0804C115.869 35.5355 115.483 35.9119 115.021 36.1728C114.559 36.4338 114.037 36.5702 113.506 36.5689C112.959 36.5897 112.419 36.4457 111.956 36.1554C111.493 35.8652 111.127 35.4423 110.907 34.9416L118.085 31.9771L117.82 31.4095ZM110.504 33.2008C110.478 32.8106 110.531 32.4192 110.658 32.0496C110.786 31.68 110.986 31.3395 111.247 31.0482C111.507 30.7568 111.824 30.5205 112.177 30.3529C112.53 30.1853 112.913 30.0899 113.304 30.0723C113.711 30.0455 114.117 30.1388 114.471 30.3406C114.825 30.5425 115.113 30.844 115.297 31.2076L110.504 33.2008ZM104.676 38.398H107.035V22.6296H104.676V38.398ZM100.815 29.1893H100.727C100.372 28.7918 99.9361 28.4739 99.4492 28.2565C98.9622 28.0391 98.4348 27.9271 97.9015 27.9278C96.5229 27.9947 95.2229 28.5894 94.2709 29.5886C93.3189 30.5879 92.7879 31.9152 92.7879 33.2954C92.7879 34.6756 93.3189 36.0028 94.2709 37.0021C95.2229 38.0014 96.5229 38.5961 97.9015 38.6629C98.436 38.6719 98.9661 38.5636 99.4543 38.3457C99.9425 38.1277 100.377 37.8054 100.727 37.4015H100.803V38.171C100.803 40.2272 99.7054 41.3246 97.9393 41.3246C97.3511 41.3109 96.7803 41.1224 96.2996 40.7832C95.8188 40.444 95.4499 39.9694 95.2398 39.4198L93.1836 40.2776C93.5706 41.2191 94.2301 42.0235 95.0775 42.5877C95.9248 43.1518 96.9214 43.45 97.9393 43.4439C100.702 43.4439 102.985 41.8166 102.985 37.8556V28.3063H100.815V29.1893ZM98.1159 36.6067C97.3022 36.535 96.5449 36.1611 95.9932 35.5587C95.4415 34.9562 95.1355 34.169 95.1355 33.3521C95.1355 32.5353 95.4415 31.748 95.9932 31.1456C96.5449 30.5432 97.3022 30.1693 98.1159 30.0975C98.5194 30.1182 98.9146 30.2195 99.2783 30.3953C99.642 30.5711 99.9669 30.8179 100.234 31.1212C100.501 31.4245 100.704 31.7782 100.832 32.1613C100.96 32.5444 101.01 32.9493 100.979 33.3521C101.014 33.7567 100.966 34.164 100.838 34.5495C100.711 34.9349 100.507 35.2905 100.238 35.5948C99.9688 35.899 99.6411 36.1455 99.2742 36.3195C98.9073 36.4934 98.509 36.5911 98.1033 36.6067H98.1159ZM128.871 22.6296H123.232V38.398H125.591V32.4186H128.883C129.556 32.4669 130.231 32.3762 130.866 32.1521C131.502 31.928 132.085 31.5754 132.578 31.1162C133.071 30.6569 133.465 30.101 133.734 29.483C134.003 28.865 134.142 28.1982 134.142 27.5241C134.142 26.8501 134.003 26.1833 133.734 25.5653C133.465 24.9473 133.071 24.3913 132.578 23.9321C132.085 23.4729 131.502 23.1202 130.866 22.8961C130.231 22.6721 129.556 22.5813 128.883 22.6296H128.871ZM128.871 30.1985H125.578V24.8246H128.921C129.639 24.8246 130.327 25.1097 130.834 25.6171C131.342 26.1246 131.627 26.8128 131.627 27.5304C131.627 28.2481 131.342 28.9363 130.834 29.4438C130.327 29.9512 129.639 30.2363 128.921 30.2363L128.871 30.1985ZM143.415 27.9278C142.557 27.8765 141.702 28.0772 140.955 28.5052C140.209 28.9333 139.604 29.57 139.215 30.3372L141.309 31.2076C141.515 30.8271 141.828 30.5148 142.209 30.3088C142.589 30.1027 143.022 30.0118 143.453 30.0471C143.753 30.0121 144.056 30.0371 144.346 30.1207C144.635 30.2042 144.906 30.3446 145.14 30.5336C145.375 30.7227 145.57 30.9566 145.714 31.2218C145.857 31.487 145.946 31.778 145.976 32.0781V32.242C145.219 31.8409 144.374 31.6329 143.516 31.6365C141.258 31.6365 138.975 32.898 138.975 35.1813C138.997 35.6681 139.117 36.1456 139.327 36.5854C139.537 37.0252 139.833 37.4184 140.198 37.7418C140.562 38.0652 140.988 38.3123 141.45 38.4683C141.911 38.6243 142.4 38.6862 142.886 38.6503C143.48 38.693 144.074 38.5749 144.607 38.3086C145.14 38.0422 145.591 37.6374 145.913 37.1366H145.989V38.398H148.259V32.3303C148.259 29.5677 146.165 27.9657 143.478 27.9657L143.415 27.9278ZM143.125 36.5689C142.356 36.5689 141.284 36.1778 141.284 35.2317C141.284 33.9703 142.621 33.554 143.806 33.554C144.556 33.5355 145.296 33.7185 145.951 34.0838C145.872 34.7668 145.549 35.3982 145.041 35.8618C144.534 36.3254 143.876 36.59 143.188 36.6067L143.125 36.5689ZM156.535 28.3063L153.835 35.1434H153.759L150.959 28.3063H148.436L152.637 37.8682L150.24 43.179H152.7L159.159 28.3063H156.535ZM135.329 38.398H137.688V22.6296H135.329V38.398Z" fill="white"/>
<path d="M13.611 10.0654C13.1998 10.5588 12.9923 11.1904 13.0307 11.8315V39.7352C12.9923 40.3763 13.1998 41.0079 13.611 41.5013L13.6993 41.5896L29.3289 25.9726V25.6067L13.6993 9.9771L13.611 10.0654Z" fill="url(#paint0_linear_1197_268)"/>
<path d="M34.5006 31.1826L29.3286 25.9727V25.6069L34.5006 20.3844L34.6141 20.4474L40.8079 23.9669C42.574 24.9635 42.574 26.6034 40.8079 27.6126L34.6393 31.1195L34.5006 31.1826Z" fill="url(#paint1_linear_1197_268)"/>
<path d="M34.6519 31.1067L29.3285 25.7833L13.6105 41.5013C13.9705 41.8177 14.4297 41.9985 14.9088 42.0123C15.3879 42.0261 15.8568 41.8721 16.2344 41.577L34.6645 31.1067" fill="url(#paint2_linear_1197_268)"/>
<path d="M34.6517 20.4599L16.2216 9.98967C15.844 9.6945 15.3752 9.54053 14.8961 9.55435C14.417 9.56817 13.9578 9.74892 13.5978 10.0654L29.3283 25.7833L34.6517 20.4599Z" fill="url(#paint3_linear_1197_268)"/>
<path opacity="0.2" d="M34.5005 30.9932L16.2218 41.4003C15.8576 41.6726 15.415 41.8198 14.9603 41.8198C14.5056 41.8198 14.063 41.6726 13.6988 41.4003L13.6105 41.4886L13.6988 41.5769C14.0622 41.8512 14.5051 41.9995 14.9603 41.9995C15.4156 41.9995 15.8584 41.8512 16.2218 41.5769L34.6519 31.1067L34.5005 30.9932Z" fill="black"/>
<path opacity="0.12" d="M13.611 41.3247C13.1998 40.8313 12.9923 40.1997 13.0307 39.5586V39.7478C12.9923 40.3889 13.1998 41.0205 13.611 41.5139L13.6993 41.4256L13.611 41.3247ZM40.8083 27.4232L34.501 30.9932L34.6145 31.1067L40.8083 27.5998C41.1598 27.4347 41.4614 27.1799 41.6829 26.8609C41.9044 26.542 42.0378 26.1703 42.0698 25.7833C41.9988 26.1349 41.8482 26.4655 41.6296 26.7498C41.4109 27.0341 41.1299 27.2645 40.8083 27.4232Z" fill="black"/>
<path opacity="0.25" d="M16.2215 10.1663L40.8076 24.1434C41.1292 24.3021 41.4101 24.5325 41.6288 24.8168C41.8475 25.1011 41.9981 25.4317 42.069 25.7833C42.0371 25.3963 41.9037 25.0246 41.6822 24.7057C41.4607 24.3867 41.159 24.1319 40.8076 23.9668L16.2215 9.98965C14.4554 8.99309 13.0173 9.82566 13.0173 11.844V12.0332C13.0552 10.0023 14.468 9.1697 16.2215 10.1663Z" fill="white"/>
<defs>
<linearGradient id="paint0_linear_1197_268" x1="27.9413" y1="11.5413" x2="6.77381" y2="32.7088" gradientUnits="userSpaceOnUse">
<stop stop-color="#00A0FF"/>
<stop offset="0.01" stop-color="#00A1FF"/>
<stop offset="0.26" stop-color="#00BEFF"/>
<stop offset="0.51" stop-color="#00D2FF"/>
<stop offset="0.76" stop-color="#00DFFF"/>
<stop offset="1" stop-color="#00E3FF"/>
</linearGradient>
<linearGradient id="paint1_linear_1197_268" x1="43.1164" y1="25.7835" x2="12.6014" y2="25.7835" gradientUnits="userSpaceOnUse">
<stop stop-color="#FFE000"/>
<stop offset="0.41" stop-color="#FFBD00"/>
<stop offset="0.78" stop-color="#FFA500"/>
<stop offset="1" stop-color="#FF9C00"/>
</linearGradient>
<linearGradient id="paint2_linear_1197_268" x1="31.7631" y1="28.6847" x2="3.05202" y2="57.3832" gradientUnits="userSpaceOnUse">
<stop stop-color="#FF3A44"/>
<stop offset="1" stop-color="#C31162"/>
</linearGradient>
<linearGradient id="paint3_linear_1197_268" x1="9.64937" y1="0.780926" x2="22.4659" y2="13.5975" gradientUnits="userSpaceOnUse">
<stop stop-color="#32A071"/>
<stop offset="0.07" stop-color="#2DA771"/>
<stop offset="0.48" stop-color="#15CF74"/>
<stop offset="0.8" stop-color="#06E775"/>
<stop offset="1" stop-color="#00F076"/>
</linearGradient>
</defs>
</svg>
