<svg width="45" height="45" viewBox="0 0 45 45" fill="none" xmlns="http://www.w3.org/2000/svg">
<path fill-rule="evenodd" clip-rule="evenodd" d="M12.2529 24.6422C13.1548 25.7447 15.4498 29.8294 15.9373 31.875H29.0623C29.5498 29.8313 31.842 25.7466 32.7439 24.645C34.285 22.765 35.2552 20.4827 35.5395 18.0684C35.82 15.6588 35.4004 13.2194 34.3311 11.0419C33.2515 8.84821 31.5731 7.00496 29.4898 5.72531C27.3882 4.43267 24.969 3.74884 22.5017 3.75C20.0295 3.75 17.607 4.43438 15.5136 5.72344C13.4298 7.00259 11.7506 8.84552 10.6704 11.0391C9.60046 13.2157 9.17996 15.6545 9.45919 18.0638C9.7395 20.4703 10.7079 22.7513 12.2529 24.6422ZM23.4373 11.25L17.8123 19.6875H21.5623V25.3125L27.1873 16.875H23.4373V11.25Z" fill="#041A8E"/>
<path d="M15.9373 34.6875C15.9373 34.4389 16.0361 34.2004 16.2119 34.0246C16.3877 33.8488 16.6262 33.75 16.8748 33.75H28.1248C28.3735 33.75 28.6119 33.8488 28.7877 34.0246C28.9635 34.2004 29.0623 34.4389 29.0623 34.6875C29.0623 34.9361 28.9635 35.1746 28.7877 35.3504C28.6119 35.5262 28.3735 35.625 28.1248 35.625H16.8748C16.6262 35.625 16.3877 35.5262 16.2119 35.3504C16.0361 35.1746 15.9373 34.9361 15.9373 34.6875ZM29.0623 37.5H15.9373V39.375C15.9373 39.8723 16.1349 40.3492 16.4865 40.7008C16.8381 41.0525 17.315 41.25 17.8123 41.25H27.1873C27.6846 41.25 28.1615 41.0525 28.5131 40.7008C28.8648 40.3492 29.0623 39.8723 29.0623 39.375V37.5Z" fill="#041A8E"/>
</svg>
