<svg width="20" height="20" viewBox="0 0 20 20" fill="none" xmlns="http://www.w3.org/2000/svg">
<g clip-path="url(#clip0_869_883)">
<path d="M19.996 19.9999V19.999H20.001V12.664C20.001 9.07569 19.2285 6.31152 15.0335 6.31152C13.0169 6.31152 11.6635 7.41819 11.111 8.46736H11.0527V6.64652H7.0752V19.999H11.2169V13.3874C11.2169 11.6465 11.5469 9.96319 13.7027 9.96319C15.8269 9.96319 15.8585 11.9499 15.8585 13.499V19.9999H19.996Z" fill="#F2F2F2"/>
<path d="M0.331177 6.64771H4.47784V20.0002H0.331177V6.64771Z" fill="#F2F2F2"/>
<path d="M2.4027 0C1.07687 0 0.0010376 1.07583 0.0010376 2.40167C0.0010376 3.7275 1.07687 4.82583 2.4027 4.82583C3.72854 4.82583 4.80437 3.7275 4.80437 2.40167C4.80354 1.07583 3.7277 0 2.4027 0V0Z" fill="#F2F2F2"/>
</g>
<defs>
<clipPath id="clip0_869_883">
<rect width="20" height="20" fill="white" transform="translate(0.0010376)"/>
</clipPath>
</defs>
</svg>
