<svg width="152" height="29" viewBox="0 0 152 29" fill="none" xmlns="http://www.w3.org/2000/svg">
<g id="LOGO">
<path id="Vector" d="M21.2169 0.639893H18.8017H16.9391H16.3865H13.968H11.5528H9.1343H6.71907H5.3148H4.30385H1.88537H0V0.679458V0.866492V1.05353V1.24056V1.4276V1.61463V1.80167V1.9887V2.17573V2.36277V2.5498V2.73684V2.92387V3.11091V3.29794V3.48498V3.67201V3.85905V4.04608V4.23311V4.42015V4.60718V4.79422V4.98125V5.16829V5.35532V5.54236V5.72939V5.91643V6.10346V6.29049V6.47753V6.52069V6.66456V6.8516V7.03863V7.22567V7.4127V7.59974V7.78677V7.97381V8.16084V8.34788V8.53491V8.72194V8.90898V9.09601V9.28305V9.47008V9.65712V9.84415V10.0312V10.2182V10.4053V10.5923V10.7793V10.9664V11.1498V11.3368V11.5239V11.7109V11.8979V12.085V12.272V12.459V12.6461V12.8331V13.0201V13.2072V13.3942V13.5812V13.7683V13.9553V14.1424V14.3294V14.5164V14.7035V14.8905V15.0775V15.2646V15.4516V15.6386V15.8257V16.0127V16.1997V16.3868V16.5738V16.7608V16.9479V17.1349V17.3219V17.509V17.696V17.883V18.0701V18.2571V18.4441V18.6312V18.8182V19.0052V19.1923V19.3793V19.3829V19.5664V19.7534V19.9404V20.1275V20.3145V20.5015V20.6886V20.8756V21.0626V21.2497V21.4367V25.2637H5.3148H16.9391H22.2539V23.156V22.9689V22.7819V22.5949V22.4078V22.2208V22.0338V21.8467V21.6597V21.4727V21.2856V21.0986V20.9152V20.7281V20.5411V20.3541V20.167V19.98V19.793V19.6059V19.4189V19.3829V19.2318V19.0448V18.8578V18.6707V18.4837V18.2967V18.1096V17.9226V17.7356V17.5485V17.3615V17.1745V16.9874V16.8004V16.6134V16.4263V16.2393V16.0523V15.8652V15.6782V15.4912V15.3041V15.1171V14.9301V14.743V14.556V14.3689V14.1819V13.9949V13.8078V13.6208V13.4338V13.2467V13.0597V12.8727V12.6856V12.4986V12.3116V12.1245V11.9375V11.7505V11.5634V11.3764V11.1894V11.0023V10.8153V10.6283V10.4412V10.2542V10.0672V9.88012V9.69309V9.50965V9.32261V9.13558V8.94854V8.76151V8.57447V8.38744V8.20041V8.01337V7.82634V7.6393V7.45227V7.26523V7.0782V6.89116V6.70413V6.52069V6.51709V6.33006V6.14303V5.95599V5.76896V5.58192V5.39489V5.20785V5.02082V4.83378V4.64675V4.45971V4.27268V4.08564V3.89861V3.71158V3.52454V3.33751V3.15047V2.96344V2.7764V2.58937V2.40233V2.2153V2.02826V1.84123V1.6542V1.46716V1.28013V1.09309V0.906057V0.719023V0.639893H21.2169Z" fill="#22347F"/>
<path id="Vector_2" d="M11.1138 15.4084L8.70831 16.9479V17.7572C8.70831 18.4981 8.97812 19.1671 9.41695 19.6527C9.85579 20.1383 10.4604 20.4368 11.13 20.4368C12.4661 20.4368 13.5518 19.2391 13.5518 17.7572V16.9479L11.1463 15.412H11.117L11.1138 15.4084Z" fill="#28C0F1"/>
<path id="Vector_3" d="M15.2847 5.46704H6.96958C6.29995 5.46704 5.69533 5.76558 5.25649 6.25115C4.81765 6.73672 4.54785 7.40573 4.54785 8.14667C4.54785 9.62496 5.63357 10.8263 6.96958 10.8263H8.70542V13.8692L11.1109 15.4086H11.1401L13.5456 13.8728V10.8263H15.2815C15.9511 10.8263 16.5557 10.5278 16.9946 10.0422C17.4334 9.55662 17.7032 8.88762 17.7032 8.14667C17.7032 6.66838 16.6207 5.46704 15.2815 5.46704H15.2847Z" fill="white"/>
<path id="Vector_4" d="M32.4666 22.0482V6.65386H27.4086V2.98511H41.8285V6.65746H36.7705V22.0518H32.4634L32.4666 22.0482Z" fill="#28C0F1"/>
<path id="Vector_5" d="M48.0896 22.3432C45.6451 22.3432 43.8443 21.7173 42.6838 20.462C41.5233 19.2103 40.9447 17.3975 40.9447 15.0308C40.9447 12.6641 41.5298 10.8765 42.6968 9.61403C43.8638 8.35155 45.6614 7.71851 48.0864 7.71851C50.5113 7.71851 52.3349 8.35155 53.5052 9.61403C54.6722 10.8765 55.2573 12.6821 55.2573 15.0308C55.2573 17.3796 54.6787 19.2103 53.5182 20.462C52.3577 21.7173 50.5471 22.3432 48.0864 22.3432H48.0896ZM48.0896 18.6133C49.0876 18.6133 49.8027 18.3363 50.2285 17.786C50.6576 17.2321 50.8722 16.3149 50.8722 15.0344C50.8722 13.754 50.6576 12.8332 50.2285 12.2829C49.7994 11.729 49.0876 11.4556 48.0896 11.4556C47.0917 11.4556 46.4025 11.7326 45.9767 12.2829C45.5476 12.8368 45.3331 13.754 45.3331 15.0344C45.3331 16.3149 45.5476 17.2357 45.9767 17.786C46.4058 18.3399 47.1079 18.6133 48.0896 18.6133Z" fill="#28C0F1"/>
<path id="Vector_6" d="M57.4552 28.4434V8.01704H61.1999L61.4145 9.22917C61.9313 8.75439 62.5132 8.38392 63.1536 8.11775C63.7972 7.85159 64.5448 7.71851 65.3998 7.71851C67.2006 7.71851 68.6276 8.25803 69.6809 9.33348C70.7341 10.4089 71.2607 12.2109 71.2607 14.7359C71.2607 17.2609 70.7211 19.1384 69.6418 20.4189C68.5626 21.7029 67.0771 22.3432 65.1885 22.3432C63.8492 22.3432 62.7082 22.0374 61.7655 21.426V28.4434H57.4584H57.4552ZM64.0898 18.8507C65.9459 18.8507 66.8723 17.4479 66.8723 14.646C66.8723 13.3044 66.6578 12.398 66.2287 11.9232C65.7996 11.4484 65.1137 11.211 64.1678 11.211C63.2218 11.211 62.4547 11.5671 61.759 12.2757V17.9587C62.0971 18.2356 62.4417 18.4514 62.7895 18.6097C63.1373 18.7679 63.5697 18.8471 64.0865 18.8471L64.0898 18.8507Z" fill="#28C0F1"/>
<path id="Vector_7" d="M74.1204 22.0483V11.5384H72.248L72.6219 8.01709H78.4275V22.0483H74.1204Z" fill="#28C0F1"/>
<path id="Vector_8" d="M78.4543 2.21533H73.7734V5.79776H78.4543V2.21533Z" fill="#28C0F1"/>
<path id="Vector_9" d="M86.4023 22.3431C84.8323 22.3431 83.6783 21.9007 82.9372 21.0122C82.196 20.1238 81.8255 18.9009 81.8255 17.3399V11.6281H80.1124V8.01694H81.8255V5.08553L86.1326 3.81226V8.01694H89.2077L89.0191 11.6281H86.1293V17.0162C86.1293 17.6888 86.2821 18.1564 86.5844 18.4225C86.8867 18.6887 87.3418 18.8218 87.9497 18.8218C88.4665 18.8218 88.9931 18.7247 89.5295 18.5268V21.7532C88.6908 22.1488 87.6474 22.3467 86.3991 22.3467L86.4023 22.3431Z" fill="#28C0F1"/>
<path id="Vector_10" d="M95.5493 22.3431C94.0507 22.3431 92.8838 21.8755 92.0451 20.9367C91.2064 19.998 90.7871 18.6312 90.7871 16.8364V8.01336H95.0942V16.5702C95.0942 17.3615 95.2665 17.937 95.6143 18.3003C95.9621 18.6671 96.4822 18.847 97.1779 18.847C97.6947 18.847 98.1856 18.7283 98.6504 18.4909C99.1152 18.2535 99.4956 17.9586 99.8011 17.6025V8.00977H104.108V22.041H100.097L99.9637 20.8576C99.4468 21.2928 98.8227 21.6453 98.0913 21.9223C97.3599 22.1992 96.5115 22.3359 95.5493 22.3359V22.3431Z" fill="#28C0F1"/>
<path id="Vector_11" d="M106.838 28.4434V8.01704H110.583L110.797 9.22917C111.314 8.75439 111.896 8.38392 112.537 8.11775C113.18 7.85159 113.928 7.71851 114.783 7.71851C116.584 7.71851 118.011 8.25803 119.064 9.33348C120.117 10.4089 120.644 12.2109 120.644 14.7359C120.644 17.2609 120.104 19.1384 119.025 20.4189C117.946 21.7029 116.46 22.3432 114.571 22.3432C113.232 22.3432 112.091 22.0374 111.149 21.426V28.4434H106.841H106.838ZM113.473 18.8507C115.329 18.8507 116.255 17.4479 116.255 14.646C116.255 13.3044 116.041 12.398 115.612 11.9232C115.183 11.4484 114.497 11.211 113.551 11.211C112.605 11.211 111.838 11.5671 111.142 12.2757V17.9587C111.48 18.2356 111.825 18.4514 112.172 18.6097C112.52 18.7679 112.953 18.8471 113.469 18.8471L113.473 18.8507Z" fill="#28C0F1"/>
<path id="Vector_12" d="M122.838 22.0482V8.01704H126.853L126.986 9.22917C127.503 8.83352 128.153 8.48463 128.94 8.1789C129.723 7.87317 130.562 7.71851 131.456 7.71851C133.097 7.71851 134.29 8.15372 135.041 9.02055C135.789 9.89098 136.166 11.2326 136.166 13.0454V22.0446H131.859V13.4303C131.859 12.6426 131.706 12.0779 131.404 11.7433C131.101 11.4088 130.555 11.2398 129.772 11.2398C129.307 11.2398 128.836 11.3585 128.355 11.5959C127.874 11.8333 127.47 12.1282 127.152 12.4843V22.0446H122.845L122.838 22.0482Z" fill="#28C0F1"/>
<path id="Vector_13" d="M144.215 27.26C143.591 27.26 142.931 27.2313 142.235 27.1701C141.539 27.109 140.88 27.0226 140.255 26.904C139.631 26.7853 139.095 26.6486 138.65 26.4903V23.2352C139.362 23.4906 140.22 23.6884 141.218 23.8287C142.216 23.9654 143.136 24.0373 143.974 24.0373C145.063 24.0373 145.879 23.9725 146.422 23.8467C146.965 23.7172 147.238 23.4942 147.238 23.1812C147.238 22.9043 147.131 22.7173 146.916 22.6201C146.701 22.5194 146.282 22.4727 145.658 22.4727H142.154C141.013 22.4727 140.125 22.2461 139.492 21.7929C138.858 21.3397 138.542 20.6779 138.542 19.811C138.542 19.2176 138.708 18.6565 139.036 18.1241C139.365 17.5918 139.852 17.1961 140.496 16.9408C139.765 16.5271 139.212 16.002 138.838 15.3726C138.464 14.7395 138.276 13.941 138.276 12.9735C138.276 11.1571 138.806 9.82986 139.869 8.9918C140.928 8.15374 142.485 7.73291 144.537 7.73291C144.966 7.73291 145.44 7.76888 145.967 7.83722C146.493 7.90556 146.88 7.9703 147.131 8.03145H152L151.893 10.9916H150.046C150.492 11.4844 150.716 12.2145 150.716 13.1821C150.716 14.5453 150.319 15.6387 149.526 16.4696C148.733 17.2969 147.534 17.7141 145.928 17.7141C145.661 17.7141 145.398 17.6997 145.138 17.6709C144.878 17.6421 144.624 17.617 144.374 17.5954C143.909 17.6529 143.513 17.7644 143.184 17.9227C142.853 18.081 142.69 18.3076 142.69 18.6025C142.69 18.8399 142.775 18.9981 142.944 19.0773C143.113 19.1564 143.366 19.196 143.704 19.196H146.942C148.242 19.196 149.256 19.5269 149.978 20.1887C150.7 20.8505 151.061 21.8109 151.061 23.0733C151.061 25.8753 148.779 27.278 144.211 27.278L144.215 27.26ZM144.563 15.0632C145.508 15.0632 146.159 14.887 146.516 14.5309C146.874 14.1748 147.053 13.5849 147.053 12.7541C147.053 11.9232 146.871 11.3225 146.503 10.9485C146.139 10.5744 145.492 10.3874 144.563 10.3874C143.688 10.3874 143.061 10.5708 142.677 10.9341C142.294 11.301 142.102 11.9052 142.102 12.7541C142.102 13.5418 142.281 14.1245 142.638 14.5021C142.996 14.8762 143.636 15.0632 144.566 15.0632H144.563Z" fill="#28C0F1"/>
</g>
</svg>
