<svg width="37" height="38" viewBox="0 0 37 38" fill="none" xmlns="http://www.w3.org/2000/svg">
<path d="M33.4348 13.9481V26.4592C33.4349 27.7348 32.9522 28.9621 32.0857 29.8893C31.2193 30.8165 30.0348 31.3733 28.7752 31.4455L28.4956 31.4532H7.97875C6.71714 31.4533 5.50332 30.9653 4.58629 30.0892C3.66926 29.2132 3.11855 28.0155 3.04712 26.742L3.03952 26.4592V13.9481L17.7083 21.7172C17.8715 21.8037 18.0529 21.8488 18.2372 21.8488C18.4214 21.8488 18.6028 21.8037 18.766 21.7172L33.4348 13.9481ZM7.97875 6.86743H28.4956C29.7199 6.86728 30.9006 7.32687 31.8087 8.15706C32.7168 8.98725 33.2877 10.1289 33.4105 11.3605L18.2372 19.397L3.06384 11.3605C3.18165 10.1778 3.71285 9.07634 4.56194 8.25417C5.41104 7.432 6.52233 6.94301 7.69608 6.87511L7.97875 6.86743H28.4956H7.97875Z" fill="#041A8E"/>
</svg>
