<svg width="37" height="38" viewBox="0 0 37 38" fill="none" xmlns="http://www.w3.org/2000/svg">
<path d="M18.2372 32.7115C16.3176 31.056 14.5384 29.2411 12.918 27.2858C10.4864 24.3493 7.59882 19.9761 7.59882 15.8088C7.59776 13.6805 8.22117 11.5998 9.39015 9.82988C10.5591 8.05998 12.2211 6.68049 14.1658 5.86599C16.1105 5.05149 18.2505 4.8386 20.3149 5.25426C22.3793 5.66991 24.2753 6.69543 25.763 8.20103C26.7535 9.19807 27.5386 10.3838 28.0729 11.6897C28.6072 12.9956 28.88 14.3956 28.8755 15.8088C28.8755 19.9761 25.988 24.3493 23.5563 27.2858C21.936 29.2411 20.1567 31.056 18.2372 32.7115ZM18.2372 11.199C17.028 11.199 15.8683 11.6846 15.0133 12.5492C14.1582 13.4137 13.6779 14.5862 13.6779 15.8088C13.6779 17.0314 14.1582 18.2039 15.0133 19.0684C15.8683 19.933 17.028 20.4186 18.2372 20.4186C19.4464 20.4186 20.606 19.933 21.4611 19.0684C22.3161 18.2039 22.7965 17.0314 22.7965 15.8088C22.7965 14.5862 22.3161 13.4137 21.4611 12.5492C20.606 11.6846 19.4464 11.199 18.2372 11.199Z" fill="#041A8E"/>
</svg>
