<svg width="39" height="39" viewBox="0 0 39 39" fill="none" xmlns="http://www.w3.org/2000/svg">
<g clip-path="url(#clip0_990_173)">
<path fill-rule="evenodd" clip-rule="evenodd" d="M6.375 19.5C6.375 22.981 7.75781 26.3194 10.2192 28.7808C12.6806 31.2422 16.019 32.625 19.5 32.625C22.981 32.625 26.3194 31.2422 28.7808 28.7808C31.2422 26.3194 32.625 22.981 32.625 19.5C32.625 16.019 31.2422 12.6806 28.7808 10.2192C26.3194 7.75781 22.981 6.375 19.5 6.375C16.019 6.375 12.6806 7.75781 10.2192 10.2192C7.75781 12.6806 6.375 16.019 6.375 19.5ZM30.375 19.5C30.375 22.3842 29.2292 25.1503 27.1898 27.1898C25.1503 29.2292 22.3842 30.375 19.5 30.375C16.6158 30.375 13.8497 29.2292 11.8102 27.1898C9.77076 25.1503 8.625 22.3842 8.625 19.5C8.625 16.6158 9.77076 13.8497 11.8102 11.8102C13.8497 9.77076 16.6158 8.625 19.5 8.625C22.3842 8.625 25.1503 9.77076 27.1898 11.8102C29.2292 13.8497 30.375 16.6158 30.375 19.5Z" fill="#041A8E"/>
<path fill-rule="evenodd" clip-rule="evenodd" d="M13.875 19.5C13.875 26.283 16.1115 31.875 19.5 31.875C22.8885 31.875 25.125 26.283 25.125 19.5C25.125 12.717 22.8885 7.125 19.5 7.125C16.1115 7.125 13.875 12.717 13.875 19.5ZM22.875 19.5C22.875 25.143 21.0825 29.625 19.5 29.625C17.9175 29.625 16.125 25.143 16.125 19.5C16.125 13.857 17.9175 9.375 19.5 9.375C21.0825 9.375 22.875 13.857 22.875 19.5Z" fill="#041A8E"/>
<path d="M9.903 12.7005L11.412 11.0325C11.562 11.1675 11.7255 11.3025 11.8995 11.433C13.806 12.861 16.8495 13.743 20.172 13.743C23.0085 13.743 25.65 13.1025 27.5685 12.006C28.0305 11.742 28.4415 11.4555 28.797 11.151L30.258 12.8625C29.7699 13.2765 29.2435 13.6431 28.686 13.9575C26.412 15.2595 23.385 15.9915 20.172 15.9915C16.389 15.9915 12.8745 14.9745 10.5495 13.233C10.3259 13.0655 10.1102 12.8878 9.903 12.7005ZM9.903 26.3235L11.412 27.9915C11.562 27.855 11.7255 27.7215 11.8995 27.591C13.806 26.163 16.8495 25.281 20.172 25.281C23.0085 25.281 25.65 25.9215 27.5685 27.018C28.0305 27.282 28.4415 27.5685 28.797 27.873L30.258 26.1615C29.7693 25.7482 29.243 25.3817 28.686 25.0665C26.412 23.7645 23.385 23.0325 20.172 23.0325C16.389 23.0325 12.8745 24.0495 10.5495 25.791C10.3259 25.9584 10.1102 26.1361 9.903 26.3235ZM7.125 20.625V18.375H31.875V20.625H7.125Z" fill="#041A8E"/>
<path fill-rule="evenodd" clip-rule="evenodd" d="M19.5 36C28.6125 36 36 28.6125 36 19.5C36 10.3875 28.6125 3 19.5 3C10.3875 3 3 10.3875 3 19.5C3 28.6125 10.3875 36 19.5 36ZM19.5 39C30.27 39 39 30.27 39 19.5C39 8.73 30.27 0 19.5 0C8.73 0 0 8.73 0 19.5C0 30.27 8.73 39 19.5 39Z" fill="#041A8E"/>
</g>
<defs>
<clipPath id="clip0_990_173">
<rect width="39" height="39" fill="white"/>
</clipPath>
</defs>
</svg>
