<svg width="37" height="38" viewBox="0 0 37 38" fill="none" xmlns="http://www.w3.org/2000/svg">
<path d="M11.8116 3.91134L13.4469 3.38275C14.9803 2.88796 16.6186 3.68853 17.2751 5.2528L18.5821 8.36905C19.1505 9.72588 18.8344 11.3224 17.801 12.3151L14.921 15.0779C15.0988 16.7313 15.649 18.3586 16.57 19.9597C17.4445 21.5088 18.6177 22.8648 20.0198 23.9472L23.4788 22.7794C24.7889 22.3384 26.2174 22.847 27.0199 24.041L28.8937 26.8222C29.8284 28.2113 29.6597 30.1259 28.5001 31.303L27.2585 32.5645C26.0214 33.82 24.2539 34.2763 22.6201 33.76C18.7599 32.543 15.2143 28.9305 11.9772 22.9223C8.73559 16.9049 7.59121 11.7972 8.54562 7.60536C8.94684 5.84133 10.1885 4.43533 11.8116 3.91134Z" fill="#041A8E"/>
</svg>
