<svg width="57" height="57" viewBox="0 0 57 57" fill="none" xmlns="http://www.w3.org/2000/svg">
<g clip-path="url(#clip0_990_80)">
<path d="M12.1076 19.9071C11.1013 18.9586 11.0546 17.3794 12.0031 16.3731C20.5286 7.32812 34.764 6.90725 43.809 15.4328C44.8153 16.3813 44.8619 17.9605 43.9135 18.9668C42.965 19.973 41.3858 20.0197 40.3795 19.0713C33.347 12.4427 22.2702 12.7702 15.6416 19.8026C14.6931 20.8089 13.1138 20.8556 12.1076 19.9071ZM15.7885 37.4837L27.285 37.1438L27.1923 34.0074C27.0069 33.9078 26.8263 33.7805 26.6615 33.6251C25.6552 32.6767 25.6085 31.0974 26.557 30.0912C27.5054 29.0849 29.0847 29.0382 30.091 29.9867C31.0972 30.9351 31.1439 32.5144 30.1954 33.5207C30.0401 33.6855 29.8726 33.8176 29.6881 33.9336L29.7809 37.07L41.2774 36.7301C42.8787 36.6828 44.1155 38.1384 43.5184 39.6262C42.7768 41.4608 41.695 43.1895 40.2535 44.7188C34.0965 51.251 23.8148 51.555 17.2826 45.3979C15.7533 43.9565 14.5712 42.2947 13.7278 40.5014C13.0496 39.0569 14.1925 37.5253 15.7938 37.478L15.7885 37.4837ZM17.4608 21.5174C23.1409 15.4912 32.6385 15.2104 38.6647 20.8905C39.671 21.839 39.7177 23.4182 38.7692 24.4245C37.8207 25.4307 36.2415 25.4774 35.2352 24.529C31.2159 20.7404 24.8878 20.9275 21.0993 24.9469C20.1508 25.9532 18.5715 25.9999 17.5653 25.0514C16.559 24.1029 16.5123 22.5237 17.4608 21.5174Z" fill="#041A8E"/>
</g>
<defs>
<clipPath id="clip0_990_80">
<rect width="40" height="40" fill="white" transform="translate(-0.00018692 29.1078) rotate(-46.6935)"/>
</clipPath>
</defs>
</svg>
