<svg width="46" height="46" viewBox="0 0 46 46" fill="none" xmlns="http://www.w3.org/2000/svg">
<rect width="46" height="46" fill="#1E1E1E"/>
<g id="new landing page">
<rect width="1440" height="4549" transform="translate(-909 -1048)" fill="white"/>
<g id="our services">
<g id="Subscribe Cable TV">
<rect x="-72" y="-41" width="190" height="185" rx="15" fill="#F1FBFF"/>
<g id="device.svg" clip-path="url(#clip0_869_536)">
<g id="device.svg fill" clip-path="url(#clip1_869_536)">
<g id="device.svg_2" clip-path="url(#clip2_869_536)">
<g id="solar:tv-bold">
<g id="Group">
<path id="Vector" fill-rule="evenodd" clip-rule="evenodd" d="M42.1665 30.6667V23C42.1665 17.5797 42.1665 14.8676 40.4817 13.1848C38.9005 11.6016 36.4127 11.5058 31.6248 11.5V42.1667C36.4127 42.1609 38.9005 42.0651 40.4817 40.4819C42.1665 38.7991 42.1665 36.0851 42.1665 30.6667ZM36.4165 21.0833C36.9248 21.0833 37.4123 21.2853 37.7718 21.6447C38.1312 22.0042 38.3332 22.4917 38.3332 23C38.3332 23.5083 38.1312 23.9958 37.7718 24.3553C37.4123 24.7147 36.9248 24.9167 36.4165 24.9167C35.9082 24.9167 35.4206 24.7147 35.0612 24.3553C34.7017 23.9958 34.4998 23.5083 34.4998 23C34.4998 22.4917 34.7017 22.0042 35.0612 21.6447C35.4206 21.2853 35.9082 21.0833 36.4165 21.0833ZM36.4165 28.75C36.9248 28.75 37.4123 28.9519 37.7718 29.3114C38.1312 29.6708 38.3332 30.1583 38.3332 30.6667C38.3332 31.175 38.1312 31.6625 37.7718 32.022C37.4123 32.3814 36.9248 32.5833 36.4165 32.5833C35.9082 32.5833 35.4206 32.3814 35.0612 32.022C34.7017 31.6625 34.4998 31.175 34.4998 30.6667C34.4998 30.1583 34.7017 29.6708 35.0612 29.3114C35.4206 28.9519 35.9082 28.75 36.4165 28.75Z" fill="#041A8E"/>
<path id="Vector_2" d="M29.8423 6.6853L25.7119 11.5H28.7498V42.1666H15.3331C9.91281 42.1666 7.20073 42.1666 5.51789 40.4819C3.83315 38.799 3.83315 36.087 3.83315 30.6685V23.0019C3.83315 17.5777 3.83315 14.8675 5.51789 13.1847C7.20073 11.5 9.91281 11.5 15.3331 11.5H20.2858L16.1573 6.6853C15.9237 6.3943 15.8125 6.02387 15.847 5.65232C15.8816 5.28077 16.0593 4.93722 16.3425 4.69429C16.6258 4.45137 16.9924 4.3281 17.3648 4.35056C17.7373 4.37302 18.0865 4.53943 18.3385 4.81463L22.9998 10.2503L27.6573 4.81463C27.9054 4.52488 28.2584 4.34555 28.6387 4.31607C29.019 4.2866 29.3954 4.4094 29.6851 4.65747C29.9749 4.90553 30.1542 5.25854 30.1837 5.63883C30.2132 6.01912 30.0904 6.39555 29.8423 6.6853Z" fill="#041A8E"/>
</g>
</g>
</g>
</g>
</g>
<g id="Subscribe Cable TV_2">
<rect x="-72" y="-41" width="190" height="185" rx="15" fill="#F1FBFF"/>
<g id="device.svg_3" clip-path="url(#clip3_869_536)">
<g id="device.svg fill_2" clip-path="url(#clip4_869_536)">
<g id="device.svg_4" clip-path="url(#clip5_869_536)">
<g id="solar:tv-bold_2">
<g id="Group_2">
<path id="Vector_3" fill-rule="evenodd" clip-rule="evenodd" d="M42.1665 30.6667V23C42.1665 17.5797 42.1665 14.8676 40.4817 13.1848C38.9005 11.6016 36.4127 11.5058 31.6248 11.5V42.1667C36.4127 42.1609 38.9005 42.0651 40.4817 40.4819C42.1665 38.7991 42.1665 36.0851 42.1665 30.6667ZM36.4165 21.0833C36.9248 21.0833 37.4123 21.2853 37.7718 21.6447C38.1312 22.0042 38.3332 22.4917 38.3332 23C38.3332 23.5083 38.1312 23.9958 37.7718 24.3553C37.4123 24.7147 36.9248 24.9167 36.4165 24.9167C35.9082 24.9167 35.4206 24.7147 35.0612 24.3553C34.7017 23.9958 34.4998 23.5083 34.4998 23C34.4998 22.4917 34.7017 22.0042 35.0612 21.6447C35.4206 21.2853 35.9082 21.0833 36.4165 21.0833ZM36.4165 28.75C36.9248 28.75 37.4123 28.9519 37.7718 29.3114C38.1312 29.6708 38.3332 30.1583 38.3332 30.6667C38.3332 31.175 38.1312 31.6625 37.7718 32.022C37.4123 32.3814 36.9248 32.5833 36.4165 32.5833C35.9082 32.5833 35.4206 32.3814 35.0612 32.022C34.7017 31.6625 34.4998 31.175 34.4998 30.6667C34.4998 30.1583 34.7017 29.6708 35.0612 29.3114C35.4206 28.9519 35.9082 28.75 36.4165 28.75Z" fill="#041A8E"/>
<path id="Vector_4" d="M29.8423 6.6853L25.7119 11.5H28.7498V42.1666H15.3331C9.91281 42.1666 7.20073 42.1666 5.51789 40.4819C3.83315 38.799 3.83315 36.087 3.83315 30.6685V23.0019C3.83315 17.5777 3.83315 14.8675 5.51789 13.1847C7.20073 11.5 9.91281 11.5 15.3331 11.5H20.2858L16.1573 6.6853C15.9237 6.3943 15.8125 6.02387 15.847 5.65232C15.8816 5.28077 16.0593 4.93722 16.3425 4.69429C16.6258 4.45137 16.9924 4.3281 17.3648 4.35056C17.7373 4.37302 18.0865 4.53943 18.3385 4.81463L22.9998 10.2503L27.6573 4.81463C27.9054 4.52488 28.2584 4.34555 28.6387 4.31607C29.019 4.2866 29.3954 4.4094 29.6851 4.65747C29.9749 4.90553 30.1542 5.25854 30.1837 5.63883C30.2132 6.01912 30.0904 6.39555 29.8423 6.6853Z" fill="#041A8E"/>
</g>
</g>
</g>
</g>
</g>
</g>
</g>
</g>
</g>
<defs>
<clipPath id="clip0_869_536">
<rect width="50" height="50" fill="white" transform="translate(-12.3478 23.7279) rotate(-46.1798)"/>
</clipPath>
<clipPath id="clip1_869_536">
<rect width="50" height="50" fill="white" transform="translate(-12.3478 23.7279) rotate(-46.1798)"/>
</clipPath>
<clipPath id="clip2_869_536">
<rect width="50" height="50" fill="white" transform="translate(-12.3478 23.7279) rotate(-46.1798)"/>
</clipPath>
<clipPath id="clip3_869_536">
<rect width="50" height="50" fill="white" transform="translate(-12.3478 23.7279) rotate(-46.1798)"/>
</clipPath>
<clipPath id="clip4_869_536">
<rect width="50" height="50" fill="white" transform="translate(-12.3478 23.7279) rotate(-46.1798)"/>
</clipPath>
<clipPath id="clip5_869_536">
<rect width="50" height="50" fill="white" transform="translate(-12.3478 23.7279) rotate(-46.1798)"/>
</clipPath>
</defs>
</svg>
