<svg width="346" height="17" viewBox="0 0 346 17" fill="none" xmlns="http://www.w3.org/2000/svg">
<path d="M8 0.5L9.79611 6.02786H15.6085L10.9062 9.44427L12.7023 14.9721L8 11.5557L3.29772 14.9721L5.09383 9.44427L0.391548 6.02786H6.20389L8 0.5Z" fill="#FFBE40"/>
<path d="M28 0.5L29.7961 6.02786H35.6085L30.9062 9.44427L32.7023 14.9721L28 11.5557L23.2977 14.9721L25.0938 9.44427L20.3915 6.02786H26.2039L28 0.5Z" fill="#FFBE40"/>
<path d="M48 0.5L49.7961 6.02786H55.6085L50.9062 9.44427L52.7023 14.9721L48 11.5557L43.2977 14.9721L45.0938 9.44427L40.3915 6.02786H46.2039L48 0.5Z" fill="#FFBE40"/>
<path d="M68 0.5L69.7961 6.02786H75.6085L70.9062 9.44427L72.7023 14.9721L68 11.5557L63.2977 14.9721L65.0938 9.44427L60.3915 6.02786H66.2039L68 0.5Z" fill="#FFBE40"/>
<path d="M88 0.5L89.7961 6.02786H95.6085L90.9062 9.44427L92.7023 14.9721L88 11.5557L83.2977 14.9721L85.0938 9.44427L80.3915 6.02786H86.2039L88 0.5Z" fill="#FFBE40"/>
</svg>
